<?xml version="1.0" encoding="utf-8"?>
<!-- Generator: Adobe Illustrator 26.0.1, SVG Export Plug-In . SVG Version: 6.00 Build 0)  -->
<svg version="1.1" id="Layer_1" xmlns="http://www.w3.org/2000/svg" xmlns:xlink="http://www.w3.org/1999/xlink" x="0px" y="0px"
	 viewBox="0 0 1554 335" style="enable-background:new 0 0 1554 335;" xml:space="preserve">
<style type="text/css">
	.st0{fill:none;}
	.st1{fill:#88A9C3;}
</style>
<g>
	<g>
		<path class="st0" d="M145.4,111.3c3.1,2.7,6.1,5.6,9.1,8.5c8,8,15.2,16.4,21.1,24.7c6.8-8.6,12.3-17.1,16.2-24.9
			C179.5,115.2,163.4,112.1,145.4,111.3z"/>
		<path class="st0" d="M135.6,109.8c2.1,0,4.2,0,6.4,0.1c-2.1-1.8-4.2-3.6-6.4-5.2c-2.1,1.7-4.2,3.4-6.4,5.2
			C131.4,109.9,133.5,109.8,135.6,109.8z"/>
		<path class="st0" d="M94.9,145.6c-6.8-8.6-12.5-17.3-16.6-25.5c-14,5.3-22.6,12.6-22.6,20.6c0,9.1,11.1,17.2,28.4,22.6
			C87,157.6,90.6,151.6,94.9,145.6z"/>
		<path class="st0" d="M154.8,154.3c0.7-1,1.1-2.8-0.3-5.9c-0.6-1.4-1.4-3.4-1.3-6.3c-1.3,2.3-3,6.4-2.2,9.3
			c0.4,1.5,1.4,2.5,2.9,3.1C154.2,154.7,154.5,154.6,154.8,154.3z"/>
		<path class="st0" d="M135.6,183.1c0.3-0.2,0.5-0.4,0.8-0.6h-1.6C135.1,182.7,135.4,182.9,135.6,183.1z"/>
		<path class="st0" d="M131.5,182.5c0-0.3,0-0.6,0.1-0.8c-4.3-3.3-8.7-6.9-13-10.8c-12.4-1-23.9-3.1-33.8-6.1
			c-0.9,1.9-1.8,3.7-2.5,5.5c1.8,1,2.5,4.3,1.6,7.8c-1,3.6-3.3,6.1-5.4,5.9c-0.7,6.1,0.4,11,3.5,14.2c8.1,8.1,27.6,2.7,49.2-12
			c0.1-0.9,0.1-1.8,0.2-2.7h2.5c-0.4-0.3-0.8-0.6-1.2-0.9L131.5,182.5L131.5,182.5z"/>
		<path class="st0" d="M185.9,163.7c-2.7-5.4-6.2-11.2-10.3-17.1c-4.6,5.7-9.7,11.4-15.2,16.9c-2,2-4,3.9-6,5.7c0,0.1,0,0.2,0,0.2
			C166.2,168.4,176.8,166.4,185.9,163.7z"/>
		<path class="st0" d="M159.5,162.6c5.6-5.6,10.7-11.4,15.3-17c-5.9-8.2-13-16.6-21.2-24.8c-3.4-3.4-6.7-6.5-10.1-9.5
			c-2.6-0.1-5.2-0.1-7.8-0.1s-5.3,0-7.8,0.1c-3.4,3-6.8,6.2-10.1,9.5c-8.2,8.2-15.3,16.6-21.2,24.8c4.6,5.7,9.7,11.4,15.3,17
			c1.8,1.8,3.7,3.6,5.5,5.3H154C155.8,166.2,157.7,164.4,159.5,162.6z M135,130.9c0.2-0.2,0.4-0.3,0.7-0.4c0.2,0.1,0.5,0.3,0.7,0.4
			c1.4,1.1,2,3.1,2.3,4.5h-5.9C133,134,133.6,132,135,130.9z M132.6,136.3h6.1c0.1,0.5,0.1,0.8,0.1,0.8c-0.3,0.7-0.5,1.3-0.7,1.9
			h-4.9c-0.2-0.6-0.4-1.2-0.7-1.9C132.5,137.2,132.5,136.8,132.6,136.3z M137.6,142.7h-4c0.1-0.7,0-1.6-0.2-2.7h4.5
			C137.6,141,137.6,142,137.6,142.7z M132.5,145.7c0,0,0.7-0.6,1-2.1h4.3c0.3,1.4,1,2.1,1,2.1c0.1,0.2,0.2,0.4,0.3,0.6h-6.8
			C132.3,146.1,132.4,145.9,132.5,145.7z M131.7,147.8h7.9c0.5,1.4,0.6,2.2,0.5,2.7h-9C131.1,150,131.2,149.2,131.7,147.8z
			 M131.5,151.5h8.3c-0.1,1.5,0.1,2.4,0.4,2.9h-9C131.4,153.9,131.6,153,131.5,151.5z M116.7,158.5c0,0-0.1-0.1-0.2-0.2
			c-0.4-0.4-1-1.3-0.1-2.7c-0.3-0.1-0.5-0.3-0.7-0.6c-0.7-1-1.5-3.2,0.2-7.1c0.7-1.6,1.6-4.1,1-7.9c0-0.3,0.1-0.5,0.3-0.6
			c0.2-0.1,0.4,0,0.6,0.2c0.2,0.3,4.6,7.3,3.3,12.2c-0.4,1.6-1.3,2.8-2.8,3.5h34.6c-1.5-0.8-2.5-1.9-2.9-3.5
			c-1.3-4.9,3.3-11.9,3.5-12.2c0.1-0.2,0.4-0.3,0.6-0.2c0.2,0.1,0.3,0.4,0.3,0.6c-0.6,3.7,0.3,6.3,1,7.9c1.8,3.8,0.9,6.1,0.2,7.1
			c-0.2,0.3-0.4,0.5-0.7,0.6c0.9,1.4,0.2,2.3-0.1,2.7c-0.1,0.1-0.2,0.2-0.2,0.2H116.7z M148.9,163.6h-26.5c0.1-0.7,0.2-1.8,0-2.9
			c-0.1-0.4-0.2-0.8-0.3-1.1h-0.3h27.6h-0.3c-0.2,0.4-0.3,0.7-0.3,1.1C148.7,161.7,148.8,162.9,148.9,163.6z M117.4,167.4
			c0.3-0.7,0.9-1.3,1.7-1.9l1-0.4h31.1l1,0.4c0.8,0.6,1.3,1.3,1.7,1.9H117.4z"/>
		<path class="st0" d="M120.1,151.5c0.8-3-0.9-7-2.2-9.3c0.1,2.8-0.7,4.9-1.3,6.3c-1.4,3.1-0.9,4.9-0.3,5.9c0.2,0.3,0.6,0.4,0.9,0.3
			C118.8,153.9,119.8,152.9,120.1,151.5z"/>
		<path class="st0" d="M116.8,169.5c0-0.1,0-0.2,0-0.2c-2-1.9-4-3.8-6-5.7c-5.5-5.5-10.6-11.2-15.2-16.9
			c-4.1,5.9-7.6,11.6-10.3,17.1C94.4,166.4,105.1,168.4,116.8,169.5z"/>
		<path class="st0" d="M152.6,170.9c-4.3,3.9-8.6,7.5-13,10.8c0,0.3,0,0.6,0.1,0.8h-1.2c-0.4,0.3-0.8,0.6-1.2,0.9h2.5
			c0.1,0.9,0.1,1.9,0.2,2.7c21.6,14.7,41.1,20.1,49.2,12c6-6,4.5-18.4-2.7-33.4C176.5,167.8,165,169.9,152.6,170.9z"/>
		<path class="st0" d="M125.8,111.3c-18,0.8-34.1,3.9-46.4,8.4c3.9,7.8,9.4,16.3,16.2,24.9c6-8.3,13.1-16.7,21.1-24.7
			C119.7,116.9,122.8,114,125.8,111.3z"/>
		<path class="st0" d="M127.3,110c2.4-2.1,4.9-4.2,7.3-6.1c-6.1-4.7-12.1-8.8-17.9-12.2c-1.3,1.6-4.7,1.7-7.9,0.1
			c-3.3-1.6-5.3-4.4-4.8-6.4c-12.4-5.1-22.6-5.5-27.9-0.2c-6,6-4.5,18.5,2.7,33.4C92.1,113.7,109.1,110.7,127.3,110z"/>
		<path class="st0" d="M192.9,120.1c-4.1,8.2-9.7,16.9-16.6,25.5c4.2,6,7.9,12,10.7,17.7c3.1-1,5.9-2,8.6-3.1
			c-0.6-2,1.2-4.8,4.3-6.6c3.2-1.8,6.6-2,8-0.4c4.8-3.8,7.5-8,7.5-12.5C215.5,132.7,206.9,125.4,192.9,120.1z"/>
		<path class="st0" d="M192.3,118.6c7.3-14.9,8.8-27.3,2.7-33.4c-9.2-9.2-33.3-0.9-58.4,18.7c2.4,1.9,4.9,4,7.3,6.1
			C162.2,110.7,179.1,113.7,192.3,118.6z"/>
		<path class="st0" d="M120.6,171c3.7,3.3,7.5,6.4,11.2,9.3h7.5c3.7-2.9,7.5-6,11.2-9.3c-3.9,0.3-7.8,0.4-11.8,0.5
			c0,0.4,0.1,0.8,0.1,1.2h-6.6c0-0.4,0.1-0.8,0.1-1.2C128.4,171.5,124.5,171.3,120.6,171z M139.5,179.1h-7.7
			c0.1-0.7,0.1-1.5,0.2-2.2h7.3C139.3,177.6,139.4,178.3,139.5,179.1z M139,173.1c0.1,0.8,0.1,1.6,0.2,2.4h-7.1
			c0.1-0.8,0.1-1.6,0.2-2.4H139z"/>
		<path class="st0" d="M219.3,145.5c0.1-1.9,0.2-3.7,0.2-5.6c0-2.2-0.1-4.5-0.3-6.7c-0.1-1.1-0.2-2.2-0.3-3.2
			c-1.7-14.6-7.1-28.1-15.3-39.4c-0.7-1-1.5-2.1-2.3-3.1c-2.2-2.8-4.6-5.4-7.1-7.9c-0.9-0.9-1.9-1.8-2.8-2.7
			c-7.7-6.9-16.7-12.5-26.5-16.2l0,0c-9.3-3.6-19.5-5.5-30-5.5c-40.5,0-74.3,28.4-82.7,66.4l0,0c-1.1,5-1.7,10.1-1.9,15.3
			c0,1-0.1,1.9-0.1,2.9c0,1.9,0.1,3.8,0.2,5.7c1.2,18.6,8.5,35.6,19.8,49c11,13.1,26,22.7,43,27.2c0.3,0.1,0.6,0.2,0.8,0.2
			c6.7,1.7,13.6,2.6,20.8,2.6h0.3c1.1,0,2.1,0,3.1-0.1c6.8-0.3,13.4-1.3,19.7-3.1c0.5-0.1,0.9-0.3,1.4-0.4c1.6-0.6,3.4-1.2,5.3-1.8
			c7.8-2.9,15.1-7,21.6-12c0.9-0.7,1.9-1.5,2.8-2.2c2.6-2.2,5.1-4.5,7.4-6.9c1-1,1.9-2,2.8-3.1c10.7-12.5,17.8-28.1,19.8-45.4
			C219.1,148.2,219.2,146.8,219.3,145.5z M155.4,217.6v0.1h-0.1h-39.4h-0.1v-0.1c-0.1-0.2-0.4-0.8,0-1.5c0.2-0.3,0.5-0.7,0.9-1.1
			h37.7c0.5,0.4,0.8,0.8,0.9,1.1C155.8,216.8,155.6,217.4,155.4,217.6z M140.3,191.9c0,0.7,0.1,1.4,0.1,2.1h-9.7
			c0-0.7,0.1-1.3,0.1-2.1H140.3z M131,190.7c0.1-0.9,0.1-1.9,0.2-2.8h8.9c0.1,1,0.1,1.9,0.2,2.8H131z M140.5,194.6
			c0,0.9,0.1,1.7,0.1,2.5h-10c0-0.8,0.1-1.6,0.1-2.5H140.5z M140.7,198.4c0,0.9,0.1,1.8,0.1,2.5h-10.3c0-0.8,0.1-1.6,0.1-2.5H140.7z
			 M140.8,201.6c0,1,0.1,1.9,0.1,2.5h-10.6c0-0.6,0-1.5,0.1-2.5H140.8z M155.4,205.7v0.8l-0.3,1.3c-0.1,0.1-0.3,0.3-0.4,0.4h-38.2
			c-0.1-0.1-0.3-0.2-0.4-0.4l-0.3-1.3v-0.8H155.4z M152.1,213.5h-32.9c0-0.3,0.2-1.4,0-3.7h32.9C151.9,212.1,152,213.2,152.1,213.5z
			 M208.5,154.3c0.4,2-1.4,4.6-4.4,6.4c-3.1,1.8-6.4,2-7.8,0.6c-1.1,0.5-2.3,1-3.5,1.4c-1.7,0.6-3.4,1.2-5.2,1.8
			c0.3,0.7,0.7,1.4,1,2.1c6.8,15,7.3,26.6,1.4,32.5c-5.9,5.9-17.4,5.4-32.5-1.4c-6.3-2.9-12.9-6.7-19.7-11.4h-4.6
			c-6.7,4.6-13.3,8.5-19.7,11.4c-15,6.8-26.6,7.3-32.5,1.4c-3.4-3.4-4.7-8.7-3.8-15.5c-1.7-1.1-2.3-4.3-1.4-7.6
			c0.9-3.4,3.1-5.9,5.1-5.9c0.5-1.1,0.9-2.3,1.5-3.5c0.3-0.7,0.7-1.4,1-2.1c-1.8-0.6-3.5-1.1-5.2-1.8c-15.5-5.8-24-13.6-24-22
			c0-8.2,8.3-15.9,23.3-21.7c-0.4-0.7-0.7-1.5-1-2.2c-6.8-15-7.3-26.6-1.4-32.5c5.5-5.5,15.8-5.4,29.3,0.1c1.4-1.4,4.6-1.5,7.8,0.1
			c3.2,1.6,5.1,4.2,4.8,6.1c6,3.5,12.2,7.7,18.4,12.5c9.5-7.4,19-13.3,27.8-17.4c15-6.8,26.6-7.3,32.5-1.4s5.4,17.4-1.4,32.5
			c-0.3,0.7-0.7,1.5-1,2.2c15,5.8,23.3,13.5,23.3,21.7C216.8,145.5,213.9,150.2,208.5,154.3z"/>
		<path class="st1" d="M149.2,159.5h0.3h-27.6h0.3c0.2,0.4,0.3,0.7,0.3,1.1c0.2,1.1,0.1,2.3,0,2.9H149c-0.1-0.7-0.2-1.8,0-2.9
			C148.9,160.2,149,159.9,149.2,159.5z"/>
		<path class="st1" d="M154.5,215h-37.7c-0.5,0.4-0.8,0.8-0.9,1.1c-0.4,0.7-0.1,1.3,0,1.5v0.1h0.1h39.4h0.1v-0.1
			c0.1-0.2,0.4-0.8,0-1.5C155.2,215.8,154.9,215.4,154.5,215z"/>
		<path class="st1" d="M119.2,209.8c0.2,2.3,0.1,3.4,0,3.7h32.9c-0.1-0.3-0.2-1.4,0-3.7H119.2z"/>
		<path class="st1" d="M115.8,206.5l0.3,1.3c0.1,0.1,0.3,0.3,0.4,0.4h38.2c0.1-0.1,0.3-0.2,0.4-0.4l0.3-1.3v-0.8h-39.6
			C115.8,205.7,115.8,206.5,115.8,206.5z"/>
		<path class="st1" d="M130.3,204.1h10.6c0-0.6,0-1.5-0.1-2.5h-10.4C130.4,202.6,130.4,203.5,130.3,204.1z"/>
		<path class="st1" d="M130.6,197.1h10c0-0.8-0.1-1.6-0.1-2.5h-9.7C130.7,195.5,130.7,196.4,130.6,197.1z"/>
		<path class="st1" d="M130.5,200.9h10.3c0-0.8-0.1-1.6-0.1-2.5h-10.1C130.5,199.3,130.5,200.1,130.5,200.9z"/>
		<path class="st1" d="M130.8,193.9h9.7c0-0.7-0.1-1.3-0.1-2.1H131C130.9,192.6,130.8,193.3,130.8,193.9z"/>
		<path class="st1" d="M131.2,187.9c-0.1,1-0.1,1.9-0.2,2.8h9.3c-0.1-0.9-0.1-1.9-0.2-2.8H131.2z"/>
		<path class="st1" d="M131.8,179.1h7.7c-0.1-0.7-0.1-1.5-0.2-2.2H132C131.9,177.6,131.8,178.3,131.8,179.1z"/>
		<path class="st1" d="M132.1,175.5h7.1c-0.1-0.8-0.1-1.6-0.2-2.4h-6.7C132.2,173.9,132.1,174.7,132.1,175.5z"/>
		<path class="st1" d="M152.2,165.5l-1-0.4h-31.1l-1,0.4c-0.8,0.6-1.3,1.3-1.7,1.9h36.4C153.5,166.8,153,166.1,152.2,165.5z"/>
		<path class="st1" d="M140.1,154.4c-0.3-0.5-0.5-1.4-0.4-2.9h-8.3c0.1,1.5-0.1,2.4-0.4,2.9H140.1z"/>
		<path class="st1" d="M140.1,150.5c0-0.5-0.1-1.3-0.5-2.7h-7.9c-0.5,1.4-0.6,2.2-0.5,2.7H140.1z"/>
		<path class="st1" d="M138.8,145.7c0,0-0.7-0.6-1-2.1h-4.3c-0.3,1.4-1,2.1-1,2.1c-0.1,0.2-0.2,0.4-0.3,0.6h6.8
			C138.9,146.1,138.8,145.9,138.8,145.7z"/>
		<path class="st1" d="M133.4,140c0.2,1.1,0.3,2,0.2,2.7h4c-0.1-0.7,0-1.6,0.2-2.7H133.4z"/>
		<path class="st1" d="M138.1,139c0.2-0.6,0.4-1.2,0.7-1.9c0,0,0-0.3-0.1-0.8h-6.1c-0.1,0.5-0.1,0.8-0.1,0.8
			c0.3,0.7,0.5,1.3,0.7,1.9H138.1z"/>
		<path class="st1" d="M136.3,130.9c-0.2-0.2-0.4-0.3-0.7-0.4c-0.2,0.1-0.5,0.3-0.7,0.4c-1.4,1.1-2,3.1-2.3,4.5h5.9
			C138.3,134,137.7,132,136.3,130.9z"/>
		<path class="st1" d="M193.5,119c0.4-0.7,0.7-1.5,1-2.2c6.8-15,7.3-26.6,1.4-32.5c-5.9-5.9-17.4-5.4-32.5,1.4
			c-8.9,4-18.4,10-27.8,17.4c-6.2-4.8-12.4-9-18.4-12.5c0.3-2-1.7-4.6-4.8-6.1c-3.1-1.6-6.4-1.5-7.8-0.1
			c-13.5-5.5-23.9-5.6-29.3-0.1c-5.9,5.9-5.4,17.4,1.4,32.5c0.3,0.7,0.7,1.5,1,2.2c-15,5.8-23.3,13.5-23.3,21.7
			c0,8.4,8.5,16.2,24,22c1.7,0.6,3.4,1.2,5.2,1.8c-0.3,0.7-0.7,1.4-1,2.1c-0.5,1.2-1,2.4-1.5,3.5c-2,0-4.2,2.5-5.1,5.9
			s-0.3,6.5,1.4,7.6c-0.8,6.8,0.4,12,3.8,15.5c5.9,5.9,17.4,5.4,32.5-1.4c6.3-2.9,12.9-6.7,19.7-11.4h4.6
			c6.7,4.6,13.3,8.5,19.7,11.4c15,6.8,26.6,7.3,32.5,1.4c5.9-5.9,5.4-17.4-1.4-32.5c-0.3-0.7-0.7-1.4-1-2.1c1.8-0.6,3.5-1.1,5.2-1.8
			c1.2-0.5,2.4-0.9,3.5-1.4c1.5,1.4,4.7,1.2,7.8-0.6c3-1.7,4.8-4.4,4.4-6.4c5.4-4.2,8.2-8.8,8.2-13.6
			C216.8,132.5,208.5,124.8,193.5,119z M195.1,85.2c6,6,4.5,18.5-2.7,33.4c-13.2-4.9-30.2-7.9-48.4-8.6c-2.4-2.1-4.9-4.2-7.3-6.1
			C161.8,84.3,185.8,76,195.1,85.2z M138.9,172.7c0-0.4-0.1-0.8-0.1-1.2c4-0.1,7.9-0.2,11.8-0.5c-3.7,3.3-7.5,6.4-11.2,9.3h-7.5
			c-3.7-2.9-7.5-6-11.2-9.3c3.9,0.3,7.8,0.4,11.8,0.5c0,0.4-0.1,0.8-0.1,1.2H138.9z M117.3,167.9c-1.8-1.7-3.7-3.5-5.5-5.3
			c-5.6-5.6-10.7-11.4-15.3-17c5.9-8.2,13-16.6,21.2-24.8c3.4-3.4,6.7-6.5,10.1-9.5c2.6-0.1,5.2-0.1,7.8-0.1c2.6,0,5.3,0,7.8,0.1
			c3.4,3,6.8,6.2,10.1,9.5c8.2,8.2,15.3,16.6,21.2,24.8c-4.6,5.7-9.7,11.4-15.3,17c-1.8,1.8-3.7,3.6-5.5,5.3H117.3z M95.7,146.6
			c4.6,5.7,9.7,11.4,15.2,16.9c2,2,4,3.9,6,5.7c0,0.1,0,0.2,0,0.2c-11.7-1.1-22.4-3.1-31.4-5.8C88.1,158.3,91.6,152.5,95.7,146.6z
			 M95.6,144.6c-6.8-8.6-12.3-17.1-16.2-24.9c12.2-4.5,28.4-7.5,46.4-8.4c-3.1,2.7-6.1,5.6-9.1,8.5
			C108.7,127.9,101.6,136.2,95.6,144.6z M160.4,163.5c5.5-5.5,10.6-11.2,15.2-16.9c4.1,5.9,7.6,11.6,10.3,17.1
			c-9.1,2.7-19.7,4.7-31.4,5.8c0-0.1,0-0.2,0-0.2C156.4,167.4,158.4,165.5,160.4,163.5z M154.5,119.9c-3-3-6-5.8-9.1-8.5
			c18,0.8,34.1,3.9,46.4,8.4c-3.9,7.8-9.4,16.3-16.2,24.9C169.6,136.2,162.5,127.9,154.5,119.9z M142,109.9
			c-2.1-0.1-4.2-0.1-6.4-0.1s-4.2,0-6.4,0.1c2.1-1.8,4.2-3.6,6.4-5.2C137.7,106.4,139.9,108.1,142,109.9z M76.2,85.2
			c5.3-5.3,15.4-4.8,27.9,0.2c-0.5,2,1.5,4.8,4.8,6.4s6.7,1.5,7.9-0.1c5.8,3.3,11.8,7.4,17.9,12.2c-2.4,1.9-4.9,4-7.3,6.1
			c-18.2,0.7-35.2,3.7-48.4,8.6C71.6,103.6,70.1,91.2,76.2,85.2z M55.7,140.7c0-8,8.6-15.3,22.6-20.6c4.1,8.2,9.7,16.9,16.6,25.5
			c-4.2,6-7.9,12-10.7,17.7C66.8,157.9,55.7,149.8,55.7,140.7z M131.5,183.4c-0.1,0.9-0.1,1.9-0.2,2.7c-21.6,14.7-41.1,20.1-49.2,12
			c-3.2-3.2-4.3-8.1-3.5-14.2c2.1,0.2,4.4-2.3,5.4-5.9c0.9-3.5,0.2-6.8-1.6-7.8c0.7-1.8,1.6-3.7,2.5-5.5c9.9,3,21.5,5.1,33.8,6.1
			c4.3,3.9,8.6,7.5,13,10.8c0,0.3,0,0.6-0.1,0.8h1.2c0.4,0.3,0.8,0.6,1.2,0.9L131.5,183.4L131.5,183.4z M135.6,183.1
			c-0.3-0.2-0.5-0.4-0.8-0.6h1.6C136.2,182.7,135.9,182.9,135.6,183.1z M189.2,198.2c-8.1,8.1-27.6,2.7-49.2-12
			c-0.1-0.9-0.1-1.8-0.2-2.7h-2.5c0.4-0.3,0.8-0.6,1.2-0.9h1.2c0-0.3,0-0.6-0.1-0.8c4.3-3.3,8.7-6.9,13-10.8
			c12.4-1,23.9-3.1,33.8-6.1C193.7,179.7,195.2,192.1,189.2,198.2z M208,153.2c-1.4-1.6-4.8-1.5-8,0.4c-3.1,1.8-4.9,4.6-4.3,6.6
			c-2.7,1.1-5.5,2.2-8.6,3.1c-2.9-5.7-6.5-11.7-10.7-17.7c6.8-8.6,12.5-17.3,16.6-25.5c14,5.3,22.6,12.6,22.6,20.6
			C215.5,145.2,212.8,149.4,208,153.2z"/>
		<path class="st1" d="M154.7,158.3c0.4-0.4,1-1.3,0.1-2.7c0.3-0.1,0.5-0.3,0.7-0.6c0.7-1,1.6-3.2-0.2-7.1c-0.7-1.6-1.6-4.1-1-7.9
			c0-0.3-0.1-0.5-0.3-0.6s-0.5,0-0.6,0.2c-0.2,0.3-4.8,7.3-3.5,12.2c0.4,1.6,1.4,2.8,2.9,3.5h-34.6c1.4-0.8,2.4-1.9,2.8-3.5
			c1.3-4.9-3.2-11.9-3.3-12.2c-0.1-0.2-0.4-0.3-0.6-0.2s-0.3,0.4-0.3,0.6c0.6,3.7-0.3,6.3-1,7.9c-1.7,3.8-0.8,6.1-0.2,7.1
			c0.2,0.3,0.4,0.5,0.7,0.6c-0.9,1.4-0.2,2.3,0.1,2.7c0.1,0.1,0.2,0.2,0.2,0.2h37.8C154.5,158.5,154.6,158.4,154.7,158.3z
			 M116.4,154.3c-0.6-1-1.1-2.8,0.3-5.9c0.6-1.4,1.3-3.4,1.3-6.3c1.2,2.3,2.9,6.4,2.2,9.3c-0.4,1.5-1.3,2.5-2.8,3.1
			C117,154.7,116.6,154.6,116.4,154.3z M153.8,154.6c-1.6-0.6-2.5-1.6-2.9-3.1c-0.8-3,1-7,2.2-9.3c-0.1,2.8,0.7,4.9,1.3,6.3
			c1.4,3.1,0.9,4.9,0.3,5.9C154.5,154.6,154.2,154.7,153.8,154.6z"/>
		<path class="st1" d="M110.1,236.5c0.1-1.6,0.4-3.5,0.5-5.1h-0.1c-0.8,1.4-1.8,3.1-2.7,4.4l-0.6,1l2.7,0.9L110.1,236.5z"/>
		<path class="st1" d="M170.2,51.9c1.9,0.7,3.7-0.6,4.8-3.4c1.1-2.8,0.6-4.9-1.3-5.6c-1.9-0.7-3.6,0.4-4.8,3.3
			C167.9,49,168.3,51.2,170.2,51.9z"/>
		<path class="st1" d="M235.4,139.9c-3-0.1-5,1.1-5,3.1c-0.1,2,1.8,3.3,4.8,3.4c3,0.1,4.8-1.1,4.9-3.1
			C240.1,141.3,238.4,140,235.4,139.9z"/>
		<path class="st1" d="M267.1,126.2c-4,0.1-8.1-0.2-11.7-0.3c-1.4-6.6-2.7-12.4-3.9-18.2c4.1-2.1,8.3-4.1,12.3-6.4
			c0.7-0.4,1.5-2.1,1.2-2.8c-2.4-6.4-4.9-12.8-7.7-19.1c-0.3-0.7-2.2-1.4-3.2-1.2c-2.9,0.7-5.7,1.7-8.6,2.8
			c-3.3,1.2-5.8,0.9-7.7-2.6c-1.8-3.4-3.8-6.8-6.3-9.6c-1.6-1.7-1.3-2.6-0.2-3.9c2.5-3.1,4.8-6.5,7.8-9.1c2-1.8,0.8-3.1-0.1-4
			c-4.7-4.6-9.8-8.9-14.4-13.6c-1.6-1.6-2.1-1.1-3.3,0c-3.3,2.9-6.7,5.7-10.1,8.5c-0.4,0.3-1.6,0.1-2.1-0.2
			c-4.6-3.1-9.2-6.2-13.9-9.5c1.5-4.8,3.2-9.9,5.1-15.8c-7.8-3.1-15.7-6.3-23.3-9.3c-2.9,5.5-5.3,10.1-7.6,14.4
			c-6.7-1.3-12.9-2.5-18.8-3.6c-0.7-5.5-1.4-10.8-2.1-16.2c-7.3,0-14.5-0.1-21.6,0.1c-1.1,0-2.9,1.6-3,2.6c-0.6,4.4-0.7,9-1,13.2
			c-2,0.4-4,0.9-6,1.4c-3.9,0.6-7.7,1.4-11.5,2.4c-1.1,0.2-2.2,0-3-1.5c-1.9-3.8-3.7-7.7-6-12.4c-7.8,3.1-15.6,6.2-23.5,9.3
			c1.7,5.5,3.3,10.5,4.8,15.1c-5,3.4-9.6,6.6-14.3,9.6c-0.9,0.6-2.9,0.4-3.9-0.2c-2.8-1.9-5.3-4.1-7.8-6.3c-1.7-1.5-3-1.5-4.6,0
			c-4.7,4.7-9.5,9.3-14.3,13.9c-1.4,1.4-1,2.6,0.1,3.8c2.9,3.2,5.8,6.3,8.6,9.5c-3.8,5.5-7.5,11-11.1,16.4
			c-4.4-1.4-8.5-2.8-12.8-3.9c-0.8-0.2-2.6,0.5-2.9,1.2C11.9,86.8,9.3,93,6.8,99.3c-0.7,1.8-0.4,2.9,1.9,3.6c3.3,1,6.4,2.7,9.5,4.3
			c0.8,0.4,1.6,1.8,1.5,2.6c-1,5.7-2.3,11.3-3.5,17C11,127.5,6,128.2,0,128.9c0,6.8-0.1,13.9,0.1,20.9c0.1,2.7,1.2,4.6,4.6,4.3
			c3.8-0.3,7.6-0.1,11.5-0.1c1.3,6.1,2.7,12,3.8,17.9c0.1,0.8-0.8,2.2-1.6,2.6c-3.4,1.9-7,3.4-10.4,5.3c-0.8,0.5-1.5,2.2-1.3,3
			c0.6,2.3,1.7,4.6,2.6,6.8c2,4.6,4.2,9.2,6.1,13.5c5.8-1.8,10.8-3.3,15.7-4.9c3.2,4.8,6.3,9,9.1,13.5c0.6,0.9,0.6,2.7,0.1,3.5
			c-2.8,3.7-5.8,7.2-9.5,11.6c5.6,5.6,11.2,11.3,17,17.2c4.6-3.7,8.3-6.6,12-9.7c1.5-1.3,2.3-1.2,3.9-0.1c3.7,2.7,7.7,5,11.5,7.7
			c0.8,0.6,1.4,2.3,1.2,3.2c-1.1,4.5-2.6,8.9-4,13.5c7.5,3.6,15.1,7.4,23.2,9c2.6-5,5-9.4,7.2-13.5c5.8,0.9,11,1.9,16.3,2.5
			c2,0.2,3,0.7,3,2.9c0,3.2,0.4,6.3,0.7,9.5c0.3,2.8,1.3,5,4.8,4.8c5.7-0.3,11.3-0.8,17-0.6c4.1,0.1,4-1.9,4-4.8
			c0-3.8,0.5-7.7,0.7-11.1c5.8-1,11.3-1.6,16.6-3c2.4-0.6,3.2,0.2,4.1,1.9c1.6,3.1,3.1,6.3,4.9,9.3c0.5,0.8,2.3,1.6,3.1,1.3
			c6.4-2.5,12.6-5.2,18.9-8c0.7-0.3,1.5-1.9,1.3-2.6c-1.1-4.5-2.5-8.9-3.8-13.3c3.6-2.5,7-4.7,10.3-7c5.3-3.7,5.8-3.7,10.4,0.4
			c2.5,2.2,5.1,4.3,7.8,6.6c5.6-5.7,10.9-10.9,15.9-16.3c0.6-0.6,0.6-2.7,0-3.4c-2.4-3-5.1-5.6-7.5-8.5c-0.6-0.7-1.2-2.3-0.8-2.9
			c3.5-5,7.1-9.9,10.6-14.7c4.3,1.3,8.5,2.7,12.9,3.7c0.9,0.2,2.7-0.9,3.2-1.8c2.7-5.5,5.1-11.2,7.6-16.9c0.9-2,0.4-3.4-1.8-4.3
			c-3.2-1.4-6.1-3.5-9.3-4.5c-2.5-0.8-2-1.8-1.6-3.5c1.1-4.4,2.4-8.8,2.7-13.3c0.2-3.5,1.6-4.1,4.5-4.1c4-0.1,7.9-0.7,12.1-1
			c0-7.2-0.2-14.3,0.1-21.4C271.4,126.9,270.1,126.1,267.1,126.2z M242,121.4l-6.8,4.7l-3.5,2.1v0.1c1.7-0.5,4.2-1.2,6.2-1.5
			l4.8-0.7l0.6,4.2l-16.5,2.4l-0.6-4.5l6.9-4.7l3.5-2.1v-0.1c-1.8,0.5-4.2,1.2-6.2,1.5l-4.8,0.7l-0.6-4.2l16.5-2.4L242,121.4z
			 M236.7,102l-5.9,2.1l1.6,4.7l5.9-2.1l1.5,4.2l-15.7,5.5l-1.5-4.2l6.2-2.2l-1.6-4.7l-6.2,2.2l-1.5-4.2l15.7-5.5L236.7,102z
			 M230.7,88.3c1.1,1.9,1.1,4,0.6,5.6l-3.6-0.6c0.2-1.1,0.3-2-0.3-3c-1-1.7-3.4-2.3-6-0.8c-2.7,1.5-3.5,3.6-2.5,5.5
			c0.6,1.1,1.7,1.7,2.7,1.9l-1.3,3.4c-2.1-0.4-3.8-1.7-4.8-3.6c-2.1-3.7-1.5-8.3,3.5-11.1C224,82.9,228.6,84.7,230.7,88.3z
			 M223.7,77.5l-2.9,2.3l-3.9-5l-2,1.6l3.4,4.3l-2.9,2.3l-3.4-4.3l-2.3,1.8l4.1,5.2l-2.9,2.3l-6.8-8.6L217,69.1L223.7,77.5z
			 M201.8,59.4l2.5-2.7l9.7,9l-2.5,2.7l-3.2-3l-8.8,9.5l-3.2-3l8.8-9.5L201.8,59.4z M196.1,50.6l-1.9,3.2l-5.5-3.3l-1.6,2.7l4.7,2.8
			l-1.9,3.2l-4.7-2.8l-3.1,5.2l-3.8-2.3l8.6-14.3L196.1,50.6z M164.8,44.5c2-5.1,6-6.8,10.3-5.1s6.1,5.7,4.1,10.8s-6.1,7-10.4,5.3
			C164.5,53.8,162.8,49.6,164.8,44.5z M145.2,32.5l10.7,1.5l-0.5,3.7l-6.3-0.9l-0.4,2.6l5.4,0.7l-0.5,3.7l-5.4-0.7l-0.4,2.9l6.6,0.9
			l-0.5,3.7l-11-1.6L145.2,32.5z M140.7,32.1l0.1,3.7l-4.4,0.1l0.2,13l-4.4,0.1L132,36l-4.4,0.1l-0.1-3.7L140.7,32.1z M113.7,34.4
			l1.6,9c0.5,2.9,1.5,3.8,3.2,3.5s2.3-1.5,1.8-4.4l-1.6-9l4.2-0.8l1.6,8.5c1,5.6-0.6,8.6-5.2,9.5c-4.6,0.8-7.3-1.4-8.3-7l-1.6-8.5
			L113.7,34.4z M104.9,36.5l1.3,3.5l-4.1,1.5l4.4,12.2l-4.1,1.5L98,43l-4.1,1.5L92.5,41L104.9,36.5z M89.9,42.3l7.4,15l-4,1.9
			l-7.4-15L89.9,42.3z M82.2,46.1l2,3.1l-3.7,2.4l7.1,10.9l-3.7,2.4L76.8,54l-3.7,2.4l-2-3.1L82.2,46.1z M64.2,58.8
			c1.4-1.3,3.5-2.1,5.6-2l0.2,3.5c-1.4,0.2-2.4,0.5-3.3,1.3c-0.8,0.7-1.1,1.4-0.6,2s1.4,0.2,2.9-0.4l2-0.7c2.1-0.8,3.9-0.5,5.5,1.3
			c1.9,2.1,1.8,5.6-1.3,8.3c-1.6,1.4-3.9,2.4-6.3,2.4l-0.1-3.9c1.5-0.1,3.1-0.6,4-1.4c1-0.9,1.1-1.6,0.6-2.1
			c-0.5-0.6-1.3-0.2-2.8,0.3l-2,0.6c-1.8,0.7-4,0.6-5.6-1.2C61.1,64.7,61.5,61.2,64.2,58.8z M50.2,74.2l8.1,1.8l3.9,1.1l0.1-0.1
			c-1.5-1-3.7-2.3-5.3-3.5l-3.8-3l2.6-3.3l13,10.5L66,81.1l-8.1-1.8L54,78.2l-0.1,0.1c1.6,1,3.7,2.3,5.3,3.5l3.8,3l-2.6,3.3
			l-13-10.5L50.2,74.2z M45,81.4l14.2,8.8l-2.3,3.7l-14.2-8.8L45,81.4z M35.2,100.6l12,4.8l2.3-5.9L53,101l-4,9.9l-15.5-6.2
			L35.2,100.6z M31.2,112.5l17.4-1.1l-1.1,4.5h-3.6l-1.1,4.5L46,122l-1,4.4l-15-8.8L31.2,112.5z M27.7,135.6l7.7-3.2l3.8-1.4v-0.1
			c-1.8,0.1-4.3,0.3-6.4,0.2l-4.8-0.3l0.3-4.2l16.6,1l-0.3,4.5l-7.7,3.2l-3.8,1.4v0.1c1.9-0.1,4.3-0.3,6.4-0.2l4.8,0.3l-0.3,4.2
			l-16.6-1L27.7,135.6z M28.2,153.3c-0.6-4.6,2.1-8.1,7.6-8.7c5.4-0.7,9,2,9.6,6.6c0.6,4.6-2.3,8.1-7.7,8.7
			C32.2,160.6,28.7,157.9,28.2,153.3z M30.4,164.4l16.2-4.1l1.1,4.3l-16.2,4.1L30.4,164.4z M32.5,172.7l3.4-1.3l1.6,4.1l12.1-4.6
			l1.6,4.1l-12.1,4.6l1.6,4.1l-3.4,1.3L32.5,172.7z M39.9,190.2L52,177.7l2.3,4.1l-2.7,2.4l2.3,4.1l3.5-1l2.2,3.9l-17,3.6
			L39.9,190.2z M55.8,213.1l-2.8-3.5l3.5-7.5l1.9-3.6l-0.1-0.1c-1.3,1.3-3,3.1-4.6,4.4l-3.8,3l-2.6-3.3l13-10.5l2.8,3.5l-3.5,7.6
			l-1.9,3.6l0.1,0.1c1.3-1.4,3-3.1,4.6-4.4l3.8-3l2.6,3.3L55.8,213.1z M75.5,218.3c-1.5,1.7-3.9,2-5.6,0.6s-1.8-3.8-0.4-5.6
			c1.5-1.7,3.9-2,5.6-0.6C76.8,214.2,76.9,216.6,75.5,218.3z M98.9,226.6c-1.6-0.9-3.8-0.2-5.2,2.3c-1.4,2.6-1.1,4.7,0.7,5.7
			c1.1,0.6,2.2,0.5,3.2,0.2l0.6,3.4c-1.9,0.7-3.9,0.5-5.7-0.5c-3.5-2-5.3-6-2.7-10.7c2.6-4.6,7.2-5.5,10.7-3.6
			c1.8,1,2.8,2.7,3.3,4.2l-3.2,1.3C100.3,227.9,99.8,227.1,98.9,226.6z M113.6,245.8l-4.2-1.4l0.3-3.4l-4.2-1.4l-1.8,2.9l-4.1-1.4
			l9.6-13.5l4.8,1.6L113.6,245.8z M126.5,247.9l-10-1.6l2.5-15.6l4.1,0.7l-2,12.2l5.9,1L126.5,247.9z M134.2,248.2L130,248l0.6-15.8
			l4.2,0.2L134.2,248.2z M145,248c-4,0.4-7.7-2-8.2-7.4c-0.5-5.3,2.9-8.6,6.9-9c2.1-0.2,3.9,0.6,5.1,1.7l-1.9,2.9
			c-0.8-0.6-1.7-1-2.7-0.9c-1.8,0.2-3.3,2-3,4.9c0.3,3,1.8,4.5,3.8,4.3c1.2-0.1,2.1-0.8,2.7-1.6l2.4,2.4
			C148.8,246.9,147,247.8,145,248z M161,244.9c-4.3,1.2-7-0.6-8.5-5.8l-2.2-7.9l4-1.2l2.4,8.3c0.8,2.7,1.8,3.5,3.3,3
			c1.6-0.5,2.1-1.7,1.3-4.4l-2.4-8.3l3.9-1.1l2.2,7.9C166.5,240.6,165.2,243.6,161,244.9z M174.9,239.3l-5.5-11l-3.7,1.9l-1.6-3.1
			l11.2-5.7l1.6,3.1l-3.7,1.9l5.5,11L174.9,239.3z M202,218.4c-1.7,1.4-4.1,1.2-5.6-0.6c-1.5-1.7-1.4-4.2,0.3-5.6
			c1.7-1.4,4.1-1.2,5.6,0.6C203.8,214.5,203.7,217,202,218.4z M199.2,194.9c-0.9,1-1.8,2.1-2.8,3.1c-2.3,2.5-4.8,4.8-7.4,6.9
			c-0.9,0.8-1.8,1.5-2.8,2.2c-6.5,5-13.8,9.1-21.6,12c-1.8,0.6-3.6,1.2-5.3,1.8c-0.5,0.2-0.9,0.3-1.4,0.4
			c-6.3,1.8-12.9,2.9-19.7,3.1c-1,0-2.1,0.1-3.1,0.1h-0.3c-7.2,0-14.1-0.9-20.8-2.6c-0.3-0.1-0.6-0.1-0.8-0.2
			c-17-4.5-32-14.1-43-27.2c-11.4-13.4-18.6-30.4-19.8-49c-0.1-1.9-0.2-3.7-0.2-5.7c0-1,0-1.9,0.1-2.9c0.2-5.3,0.8-10.4,1.9-15.3
			l0,0c8.3-38,42.2-66.4,82.7-66.4c10.6,0,20.7,1.9,30,5.5l0,0c9.9,3.7,18.8,9.3,26.5,16.2c1,0.9,1.9,1.7,2.8,2.7
			c2.5,2.5,4.9,5.1,7.1,7.9c0.8,1,1.6,2,2.3,3.1c8.2,11.4,13.6,24.8,15.3,39.4c0.1,1.1,0.2,2.1,0.3,3.2c0.2,2.2,0.3,4.4,0.3,6.7
			c0,1.9-0.1,3.7-0.2,5.6c-0.1,1.4-0.2,2.7-0.4,4C217,166.7,209.9,182.4,199.2,194.9z M220.4,207l-3.5-1.3c-1.2-0.5-2.4-0.9-3.7-1.4
			l-0.1,0.1c0.7,1.2,1.3,2.2,2,3.4l1.9,3.2l-2.9,3.6l-5.2-10.8l-4.4-3.7l2.8-3.4l4.4,3.7l11.6,3.1L220.4,207z M228.4,195.9
			c-1.2,2.1-3,3.2-4.7,3.6l-1.3-3.4c1-0.3,1.9-0.8,2.6-1.9c1.1-1.9,0.4-4.3-2.2-5.8c-2.7-1.6-4.9-1.3-6.4,1.3
			c-0.2,0.4-0.4,0.9-0.4,1.3l2,1.2l1.2-2.1l3.1,1.8l-3.2,5.5l-6.9-4c-0.4-1.6-0.1-3.9,1.1-5.9c2.4-4,6.7-5.8,11.6-2.9
			C229.9,187.1,230.7,192,228.4,195.9z M237.4,177.2c-1.6,4.3-5.6,6.2-10.7,4.3c-5.2-1.9-7.1-5.9-5.5-10.3c1.6-4.3,5.7-6.2,10.8-4.3
			C237.1,168.9,238.9,172.9,237.4,177.2z M241.6,160.6l-12.7-2.5l-1.2,6.2l-3.6-0.7l2.1-10.5l16.3,3.2L241.6,160.6z M243.8,143.4
			c-0.1,4.6-3.3,7.7-8.8,7.5s-8.6-3.4-8.5-8s3.5-7.6,8.9-7.5C241,135.6,244,138.8,243.8,143.4z"/>
		<path class="st1" d="M48.1,187.4c-1.2,1.1-2.8,2.5-4,3.6l0.1,0.1c1.7-0.5,3.6-1.1,5.2-1.5l1.1-0.3l-1.5-2.7L48.1,187.4z"/>
		<path class="st1" d="M230.4,171.2c-2.8-1-5-0.5-5.7,1.3c-0.7,1.9,0.7,3.7,3.5,4.7s4.9,0.5,5.6-1.4
			C234.5,174,233.3,172.3,230.4,171.2z"/>
		<path class="st1" d="M41.5,151.6c-0.2-2-2.3-3-5.3-2.6s-4.6,1.8-4.3,3.8c0.2,2,2.1,3,5.1,2.6C40.1,155.1,41.8,153.6,41.5,151.6z"
			/>
		<path class="st1" d="M39.2,115.9c-1.6,0-3.7,0-5.4,0v0.1c1.6,0.7,3.4,1.6,4.9,2.4l1.1,0.5l0.7-3H39.2z"/>
		<rect y="322.1" class="st1" width="271.1" height="6.5"/>
		<rect x="218.6" y="299.2" class="st1" width="5.1" height="4.6"/>
		<path class="st1" d="M150.2,305.9c0.5,0.3,1.1,0.5,1.8,0.5c0.8,0,1.5-0.1,2.1-0.4s1.2-0.7,1.7-1.2v-5.6h-4.7
			c0.2,0.4,0.4,0.7,0.5,1.1s0.2,0.8,0.2,1.2c0,1.5-0.9,2.5-2.7,3.1C149.3,305.2,149.7,305.6,150.2,305.9z"/>
		<path class="st1" d="M175.5,297h2.7h0.9h7.7c-1.2-1.3-2.5-2.3-3.9-3s-2.9-1.1-4.5-1.1c-1.2,0-2,0.2-2.6,0.6s-0.9,0.9-0.9,1.6
			c0,0.4,0.1,0.7,0.2,1C175.2,296.5,175.4,296.8,175.5,297z"/>
		<path class="st1" d="M235.3,305.9c0.5,0.3,1.1,0.5,1.8,0.5c0.8,0,1.5-0.1,2.1-0.4s1.2-0.7,1.7-1.2v-5.6h-4.7
			c0.2,0.4,0.4,0.7,0.5,1.1s0.2,0.8,0.2,1.2c0,1.5-0.9,2.5-2.7,3.1C234.5,305.2,234.9,305.6,235.3,305.9z"/>
		<rect x="48.2" y="299.2" class="st1" width="5.1" height="4.6"/>
		<path class="st1" d="M67.4,303.5c0.4,0.1,0.7,0.1,1.1,0.1s0.8,0,1.2,0c0.6,0,1.2,0,1.7-0.1s1.1-0.1,1.6-0.3V299h-5.3
			c0.1,0.2,0.2,0.5,0.2,0.8c0.1,0.3,0.1,0.7,0.1,1.1c0,0.5-0.1,1-0.2,1.4C67.8,302.9,67.7,303.2,67.4,303.5z"/>
		<path class="st1" d="M0,315.7h271.1v-29H0V315.7z M145.3,303.3h-2.7c-0.7,0-1.2,0-1.5,0c0.5,0.4,0.9,0.9,1.2,1.5
			c0.3,0.5,0.4,1.1,0.4,1.7c0,0.7-0.2,1.3-0.6,1.8c-0.4,0.5-0.9,0.9-1.5,1.1s-1.3,0.4-2.1,0.4c-1,0-2-0.2-2.9-0.7
			c-0.9-0.4-1.8-1.2-2.6-2.3c-0.8-1.1-1.6-2.6-2.4-4.5l2.5-0.8c0.8,2,1.5,3.4,2.4,4.4c0.8,1,1.7,1.5,2.7,1.5c0.4,0,0.8-0.1,1.1-0.3
			c0.3-0.2,0.4-0.6,0.4-1c0-0.6-0.2-1.2-0.7-1.7s-1.1-1-1.9-1.4l1-1.9h7.1v2.2H145.3z M130.1,297H145h0.7h16.4h2.2
			c-0.3-0.9-0.6-1.7-0.9-2.3c-0.3-0.6-0.7-1.1-1.1-1.3c-0.4-0.3-0.9-0.4-1.5-0.4c-0.3,0-0.7,0-1,0.1s-0.6,0.1-0.8,0.2l-0.8-2.1
			c0.4-0.1,0.8-0.2,1.2-0.3c0.4-0.1,0.9-0.1,1.4-0.1c0.7,0,1.3,0.1,1.9,0.3c0.6,0.2,1.1,0.5,1.6,1s0.9,1.1,1.4,2
			c0.4,0.8,0.8,1.8,1.2,3.1h2.7h0.9h2c-0.2-0.4-0.4-0.8-0.5-1.1c-0.1-0.4-0.2-0.8-0.2-1.2c0-1.2,0.5-2.2,1.6-2.9
			c1.1-0.7,2.5-1.1,4.5-1.1c1.8,0,3.4,0.3,4.9,0.9s2.9,1.3,4.1,2.3c1.2,0.9,2.2,2,3.2,3.1h4.9h0.9h9.6c-0.3-0.5-0.6-1-0.8-1.5
			c-0.2-0.6-0.3-1.1-0.3-1.6c0-1.1,0.4-1.9,1.3-2.4c0.8-0.5,1.9-0.8,3.1-0.8c0.6,0,1.1,0,1.6,0.1s0.9,0.2,1.3,0.3l-0.6,1.9
			c-0.6-0.2-1.2-0.3-1.8-0.3c-0.7,0-1.2,0.2-1.5,0.5s-0.5,0.7-0.5,1.3c0,0.4,0.1,0.8,0.3,1.3c0.2,0.4,0.4,0.8,0.7,1.2h3.2h0.9H229
			h0.9h16.2v2.2h-2.5v12.1h-2.9v-3.6c-0.6,0.3-1.2,0.5-1.8,0.7c-0.7,0.2-1.4,0.3-2.2,0.3c-1.1,0-2.1-0.2-2.9-0.7
			c-0.8-0.5-1.5-1.1-2-1.9s-0.9-1.7-1-2.8c1-0.2,1.8-0.4,2.3-0.8s0.7-0.9,0.7-1.5c0-0.3-0.1-0.7-0.2-0.9c-0.1-0.3-0.3-0.6-0.5-0.8
			H230h-0.9h-2.5v12.1h-3v-5.3h-5.1v0.6c0,0.6-0.1,1-0.4,1.3c-0.3,0.3-0.7,0.4-1.1,0.4c-0.4,0-0.7-0.1-1.1-0.3
			c-0.4-0.2-0.8-0.5-1.1-0.8c-0.4-0.3-0.7-0.7-0.9-1c-0.2-0.4-0.3-0.7-0.3-1.1s0.1-0.6,0.4-0.9c0.2-0.2,0.7-0.4,1.4-0.4h0.4v-4.6h-3
			h-0.9h-2.5v12.1h-2.9v-12.1h-4.2v6.8c0,1-0.5,1.6-1.5,1.6c-0.4,0-0.8-0.1-1.2-0.3c-0.4-0.2-0.8-0.5-1.1-0.8
			c-0.4-0.3-0.7-0.7-0.9-1c-0.2-0.4-0.3-0.7-0.3-1.1s0.1-0.7,0.3-1s0.7-0.4,1.4-0.4h0.4v-3.8h-3h-0.9H193v12.1h-2.9v-7.1h-2.5
			c-1,0-1.7,0-2.2,0.1s-0.9,0.2-1.2,0.5c-0.4,0.3-0.6,0.7-0.6,1.3c0,0.6,0.3,1.2,0.9,1.8c0.6,0.6,1.4,1.3,2.5,2l-1.9,1.7
			c-0.8-0.6-1.5-1.2-2.2-1.8c-0.7-0.6-1.2-1.3-1.6-2c-0.4-0.7-0.6-1.4-0.6-2.1c0-0.5,0.1-1,0.3-1.5c0.2-0.4,0.5-0.8,0.9-1.1
			c0.5-0.4,1.1-0.7,1.9-0.9c0.7-0.2,1.7-0.3,3-0.3h3.3v-2.8h-10.5h-0.9h-2.5v12.1h-2.9v-12.1h-2.1h-0.9h-2.5v12.1h-2.9v-12.1h-2.1
			h-3.4v12.1h-2.9v-3.6c-0.6,0.3-1.2,0.5-1.8,0.7c-0.7,0.2-1.4,0.3-2.2,0.3c-1.1,0-2.1-0.2-2.9-0.7c-0.8-0.5-1.5-1.1-2-1.9
			s-0.9-1.7-1-2.8c1-0.2,1.8-0.4,2.3-0.8s0.7-0.9,0.7-1.5c0-0.3-0.1-0.7-0.2-0.9c-0.1-0.3-0.3-0.6-0.5-0.8h-2.4H145h-14.9V297z
			 M96.1,297h17.5h7.6v2.2h-2.5v12.1h-2.9v-12.1h-2.1h-3.4v12.1h-3V306H102v0.6c0,0.6-0.1,1-0.4,1.3s-0.7,0.4-1.1,0.4
			s-0.7-0.1-1.1-0.3c-0.4-0.2-0.8-0.5-1.1-0.8c-0.4-0.3-0.7-0.7-0.9-1c-0.2-0.4-0.3-0.7-0.3-1.1s0.1-0.6,0.4-0.9
			c0.2-0.2,0.7-0.4,1.4-0.4h0.4v-4.6h-3V297H96.1z M25.4,297h16.9h16.6h0.9h18.9h0.9h2.2c-0.3-0.9-0.6-1.7-0.9-2.3
			c-0.3-0.6-0.7-1.1-1.1-1.3c-0.4-0.3-0.9-0.4-1.5-0.4c-0.3,0-0.7,0-1,0.1s-0.6,0.1-0.8,0.2l-0.8-2.1c0.4-0.1,0.8-0.2,1.2-0.3
			c0.4-0.1,0.9-0.1,1.4-0.1c0.7,0,1.3,0.1,1.9,0.3c0.6,0.2,1.1,0.5,1.6,1s0.9,1.1,1.4,2c0.4,0.8,0.8,1.8,1.2,3.1h2.7v2.2h-2.5v12.1
			h-2.9v-12.1h-2.1h-0.9h-2.5v12.1h-2.9v-5.6c-0.5,0.1-1,0.2-1.5,0.2s-1,0.1-1.6,0.1c-0.9,0-1.8-0.1-2.6-0.2c-0.8-0.1-1.5-0.3-2-0.5
			c-0.2,0.1-0.5,0.2-0.8,0.3c0.7,0.7,1.4,1.4,2.3,2.2c0.9,0.7,1.8,1.5,2.8,2.2l-1.9,1.7c-1.4-1.1-2.7-2.2-3.8-3.3
			c-1.1-1.1-2-1.9-2.6-2.7c-0.4-0.5-0.6-0.8-0.7-1.1c-0.1-0.3-0.2-0.6-0.2-0.8c0-0.4,0.1-0.7,0.4-1c0.3-0.3,0.8-0.5,1.5-0.5
			c0.8,0,1.5,0.3,2,0.8c0.2-0.3,0.4-0.6,0.5-1s0.1-0.8,0.1-1.1c0-0.3,0-0.6-0.1-0.8c-0.1-0.3-0.1-0.5-0.2-0.7h-5.2h-0.9h-2.5v12.1
			h-3v-5.3h-5.1v0.6c0,0.6-0.1,1-0.4,1.3c-0.3,0.3-0.7,0.4-1.1,0.4c-0.4,0-0.7-0.1-1.1-0.3c-0.4-0.2-0.8-0.5-1.1-0.8
			c-0.4-0.3-0.7-0.7-0.9-1c-0.2-0.4-0.3-0.7-0.3-1.1s0.1-0.6,0.4-0.9c0.2-0.2,0.7-0.4,1.4-0.4h0.4v-4.6h-3H39v12.1h-2.9v-7.1h-2.5
			c-1,0-1.7,0-2.2,0.1s-0.9,0.2-1.2,0.5c-0.4,0.3-0.6,0.7-0.6,1.3c0,0.6,0.3,1.2,0.9,1.8c0.6,0.6,1.4,1.3,2.5,2l-1.9,1.7
			c-0.8-0.6-1.5-1.2-2.2-1.8c-0.7-0.6-1.2-1.3-1.6-2s-0.6-1.4-0.6-2.1c0-0.5,0.1-1,0.3-1.5s0.5-0.8,0.9-1.1c0.5-0.4,1.1-0.7,1.9-0.9
			c0.7-0.2,1.7-0.3,3-0.3h3.3v-2.8H25.4V297z"/>
		<rect x="102" y="299.2" class="st1" width="5.1" height="4.6"/>
	</g>
	<g>
		<g>
			<g>
				<path class="st1" d="M352.2,275.8h8.8v52.8h-9l-11.3-35v35h-8.9v-52.8h9.3l11.1,34.5V275.8z"/>
				<path class="st1" d="M391.2,328.6l-2-11h-11.5l-1.8,11h-9.6l10.6-52.8h13l11.1,52.8H391.2z M378.9,310.3h9l-4.6-25.3
					L378.9,310.3z"/>
				<path class="st1" d="M430.5,275.8v7.4h-9.3v45.4h-9.6v-45.4h-9.2v-7.4H430.5z"/>
				<path class="st1" d="M435.9,275.8h9.6v52.8h-9.6V275.8z"/>
				<path class="st1" d="M463.2,275.8h10.2c6.1,0,9.1,2.8,9.1,8.3v36.2c0,5.5-3,8.3-9.1,8.3h-10.2c-6.1,0-9.1-2.8-9.1-8.3V284
					C454.1,278.5,457.1,275.8,463.2,275.8z M472.9,318.9v-33.5c0-0.9-0.2-1.5-0.5-1.8s-0.9-0.5-1.8-0.5h-4.4c-0.9,0-1.6,0.2-1.9,0.5
					s-0.5,0.9-0.5,1.8v33.5c0,0.9,0.2,1.5,0.5,1.8s1,0.5,1.9,0.5h4.4c0.9,0,1.5-0.2,1.8-0.5C472.8,320.4,472.9,319.8,472.9,318.9z"
					/>
				<path class="st1" d="M511.2,275.8h8.8v52.8h-9l-11.3-35v35h-8.9v-52.8h9.3l11.1,34.5V275.8z"/>
				<path class="st1" d="M550.1,328.6l-2-11h-11.5l-1.8,11h-9.6l10.6-52.8h13l11.1,52.8H550.1z M537.8,310.3h9l-4.6-25.3
					L537.8,310.3z"/>
				<path class="st1" d="M574.6,321.2h14.1v7.4H565v-52.8h9.6L574.6,321.2L574.6,321.2z"/>
				<path class="st1" d="M607.7,275.8h9.6v52.8h-9.6V275.8z"/>
				<path class="st1" d="M646.7,275.8h8.8v52.8h-9l-11.3-35v35h-8.9v-52.8h9.3l11.1,34.5L646.7,275.8L646.7,275.8z"/>
				<path class="st1" d="M680.7,318.9v-11.3c0-0.9-0.2-1.5-0.5-1.8s-0.9-0.5-1.8-0.5h-6.8c-5.7,0-8.6-2.8-8.6-8.4v-13
					c0-5.5,3-8.3,9-8.3h9.2c6,0,9,2.8,9,8.3v7.4h-9.7v-6c0-0.9-0.2-1.5-0.5-1.8s-0.9-0.5-1.8-0.5H675c-0.9,0-1.6,0.2-1.9,0.5
					c-0.3,0.3-0.5,0.9-0.5,1.8V296c0,0.9,0.2,1.5,0.5,1.8s1,0.5,1.9,0.5h6.6c5.9,0,8.8,2.7,8.8,8.2v13.8c0,5.5-3,8.3-9.1,8.3h-9
					c-6.1,0-9.1-2.8-9.1-8.3V313h9.6v5.9c0,0.9,0.2,1.5,0.5,1.8s1,0.5,1.9,0.5h3.2c0.9,0,1.5-0.2,1.8-0.5
					C680.6,320.4,680.7,319.8,680.7,318.9z"/>
				<path class="st1" d="M722.3,275.8v7.4H713v45.4h-9.6v-45.4h-9.2v-7.4H722.3z"/>
				<path class="st1" d="M727.7,275.8h9.6v52.8h-9.6V275.8z"/>
				<path class="st1" d="M770.7,275.8v7.4h-9.3v45.4h-9.6v-45.4h-9.2v-7.4H770.7z"/>
				<path class="st1" d="M794.3,275.8h9.6v44.5c0,5.5-3,8.3-9.1,8.3h-10.2c-6.1,0-9.1-2.8-9.1-8.3v-44.5h9.6V319
					c0,0.9,0.2,1.5,0.5,1.8s0.9,0.5,1.8,0.5h4.4c0.9,0,1.6-0.2,1.9-0.5c0.3-0.3,0.5-0.9,0.5-1.8L794.3,275.8L794.3,275.8z"/>
				<path class="st1" d="M836.8,275.8v7.4h-9.3v45.4h-9.6v-45.4h-9.2v-7.4H836.8z"/>
				<path class="st1" d="M851.4,321.2h16.1v7.4h-25.8v-52.8h25.1v7.4h-15.4v14.6h13v7.4h-13L851.4,321.2L851.4,321.2z"/>
				<path class="st1" d="M896,275.8h10.2c6.1,0,9.1,2.8,9.1,8.3v36.2c0,5.5-3,8.3-9.1,8.3H896c-6.1,0-9.1-2.8-9.1-8.3V284
					C886.9,278.5,890,275.8,896,275.8z M905.8,318.9v-33.5c0-0.9-0.2-1.5-0.5-1.8s-0.9-0.5-1.8-0.5H899c-0.9,0-1.6,0.2-1.9,0.5
					c-0.3,0.3-0.5,0.9-0.5,1.8v33.5c0,0.9,0.2,1.5,0.5,1.8s1,0.5,1.9,0.5h4.4c0.9,0,1.5-0.2,1.8-0.5
					C905.6,320.4,905.8,319.8,905.8,318.9z"/>
				<path class="st1" d="M949.2,283.1h-15.9v16.1h13v7h-13v22.3h-9.7v-52.8h25.6L949.2,283.1L949.2,283.1z"/>
				<path class="st1" d="M992.7,275.8v7.4h-9.3v45.4h-9.6v-45.4h-9.2v-7.4H992.7z"/>
				<path class="st1" d="M1007.3,321.2h16.1v7.4h-25.8v-52.8h25.1v7.4h-15.4v14.6h13v7.4h-13L1007.3,321.2L1007.3,321.2z"/>
				<path class="st1" d="M1056.9,293.3h-9.7v-8.2c0-0.9-0.2-1.5-0.5-1.8s-0.9-0.5-1.8-0.5h-3.9c-0.9,0-1.5,0.2-1.8,0.5
					s-0.5,0.9-0.5,1.8v34.3c0,0.9,0.2,1.5,0.5,1.8s0.9,0.5,1.8,0.5h3.9c0.9,0,1.5-0.2,1.8-0.5s0.5-0.9,0.5-1.8v-8h9.7v9
					c0,5.5-3,8.3-9.1,8.3h-9.8c-6.1,0-9.1-2.8-9.1-8.3V284c0-5.5,3-8.3,9.1-8.3h9.8c6.1,0,9.1,2.8,9.1,8.3V293.3z"/>
				<path class="st1" d="M1084.6,275.8h9.6v52.8h-9.6V306h-10.9v22.5h-9.6v-52.8h9.6v22.9h10.9V275.8z"/>
				<path class="st1" d="M1123.1,275.8h8.8v52.8h-9l-11.3-35v35h-8.9v-52.8h9.3l11.1,34.5V275.8z"/>
				<path class="st1" d="M1149.2,275.8h10.2c6.1,0,9.1,2.8,9.1,8.3v36.2c0,5.5-3,8.3-9.1,8.3h-10.2c-6.1,0-9.1-2.8-9.1-8.3V284
					C1140.1,278.5,1143.1,275.8,1149.2,275.8z M1158.9,318.9v-33.5c0-0.9-0.2-1.5-0.5-1.8s-0.9-0.5-1.8-0.5h-4.4
					c-0.9,0-1.6,0.2-1.9,0.5s-0.5,0.9-0.5,1.8v33.5c0,0.9,0.2,1.5,0.5,1.8s1,0.5,1.9,0.5h4.4c0.9,0,1.5-0.2,1.8-0.5
					C1158.7,320.4,1158.9,319.8,1158.9,318.9z"/>
				<path class="st1" d="M1186.3,321.2h14.1v7.4h-23.7v-52.8h9.6V321.2z"/>
				<path class="st1" d="M1213.8,275.8h10.2c6.1,0,9.1,2.8,9.1,8.3v36.2c0,5.5-3,8.3-9.1,8.3h-10.2c-6.1,0-9.1-2.8-9.1-8.3V284
					C1204.7,278.5,1207.8,275.8,1213.8,275.8z M1223.5,318.9v-33.5c0-0.9-0.2-1.5-0.5-1.8s-0.9-0.5-1.8-0.5h-4.4
					c-0.9,0-1.6,0.2-1.9,0.5s-0.5,0.9-0.5,1.8v33.5c0,0.9,0.2,1.5,0.5,1.8s1,0.5,1.9,0.5h4.4c0.9,0,1.5-0.2,1.8-0.5
					C1223.4,320.4,1223.5,319.8,1223.5,318.9z"/>
				<path class="st1" d="M1269,292h-9.7v-6.9c0-0.9-0.2-1.5-0.5-1.8s-0.9-0.5-1.8-0.5h-3.9c-0.9,0-1.5,0.2-1.8,0.5s-0.5,0.9-0.5,1.8
					v34.3c0,0.9,0.2,1.5,0.5,1.8s0.9,0.5,1.8,0.5h3.9c0.9,0,1.5-0.2,1.8-0.5s0.5-0.9,0.5-1.8v-11.7h-4.2v-6.8h13.9v19.5
					c0,5.5-3,8.3-9.1,8.3h-9.8c-6.1,0-9.1-2.8-9.1-8.3V284c0-5.5,3-8.3,9.1-8.3h9.8c6.1,0,9.1,2.8,9.1,8.3L1269,292L1269,292z"/>
				<path class="st1" d="M1294.7,328.6h-9.6v-16.7l-12.3-36.1h9.8l7.2,27.1l6.8-27.1h9.8l-11.6,35.8v17H1294.7z"/>
				<path class="st1" d="M1352.5,293.3h-9.7v-8.2c0-0.9-0.2-1.5-0.5-1.8s-0.9-0.5-1.8-0.5h-3.9c-0.9,0-1.5,0.2-1.8,0.5
					s-0.5,0.9-0.5,1.8v34.3c0,0.9,0.2,1.5,0.5,1.8s0.9,0.5,1.8,0.5h3.9c0.9,0,1.5-0.2,1.8-0.5s0.5-0.9,0.5-1.8v-8h9.7v9
					c0,5.5-3,8.3-9.1,8.3h-9.8c-6.1,0-9.1-2.8-9.1-8.3V284c0-5.5,3-8.3,9.1-8.3h9.8c6.1,0,9.1,2.8,9.1,8.3V293.3z"/>
				<path class="st1" d="M1381.4,328.6l-2-11h-11.5l-1.8,11h-9.6l10.6-52.8h13l11.1,52.8H1381.4z M1369.1,310.3h9l-4.6-25.3
					L1369.1,310.3z"/>
				<path class="st1" d="M1405.8,321.2h14.1v7.4h-23.7v-52.8h9.6V321.2z"/>
				<path class="st1" d="M1425.1,275.8h9.6v52.8h-9.6V275.8z"/>
				<path class="st1" d="M1471.2,293.3h-9.7v-8.2c0-0.9-0.2-1.5-0.5-1.8s-0.9-0.5-1.8-0.5h-3.9c-0.9,0-1.5,0.2-1.8,0.5
					s-0.5,0.9-0.5,1.8v34.3c0,0.9,0.2,1.5,0.5,1.8s0.9,0.5,1.8,0.5h3.9c0.9,0,1.5-0.2,1.8-0.5s0.5-0.9,0.5-1.8v-8h9.7v9
					c0,5.5-3,8.3-9.1,8.3h-9.8c-6.1,0-9.1-2.8-9.1-8.3V284c0-5.5,3-8.3,9.1-8.3h9.8c6.1,0,9.1,2.8,9.1,8.3V293.3z"/>
				<path class="st1" d="M1497.2,275.8h9.6v44.5c0,5.5-3,8.3-9.1,8.3h-10.2c-6.1,0-9.1-2.8-9.1-8.3v-44.5h9.6V319
					c0,0.9,0.2,1.5,0.5,1.8s0.9,0.5,1.8,0.5h4.4c0.9,0,1.6-0.2,1.9-0.5s0.5-0.9,0.5-1.8L1497.2,275.8L1497.2,275.8z"/>
				<path class="st1" d="M1539.7,275.8v7.4h-9.3v45.4h-9.6v-45.4h-9.2v-7.4H1539.7z"/>
			</g>
		</g>
		<g>
			<path class="st1" d="M357.1,116.2c2,0,3-1.2,3-3.7V88.2c0-1.4-0.4-2.3-1.3-2.7c-0.9-0.4-1.6-0.6-2.2-0.6s-1.3,0.3-2.1,0.8
				c-0.8,0.6-1.2,1.3-1.2,2.2v33.5h-6.9V87.9c0-2-1.1-3-3.2-3c-1.5,0-2.4,0.4-2.9,1.3c-0.5,0.8-0.7,1.5-0.7,2v24.2
				c0,2.5,1,3.7,3.1,3.7v5.6c-5,0-8.3-1.7-9.9-5.1c-0.5-1.1-0.8-2.3-0.8-3.8V88.4c0-4.3,2.1-7.2,6.4-8.6c1.2-0.5,3.1-0.7,5.6-0.7
				s4.4,0.9,5.9,2.7c1.5-1.8,3.5-2.7,6-2.7c2.6,0,4.5,0.2,5.7,0.7c1.3,0.5,2.4,1.1,3.3,1.9c2,1.8,3.1,4,3.1,6.7V113
				c0,4.1-2.1,6.9-6.3,8.2c-1.3,0.4-2.8,0.6-4.4,0.6v-5.6H357.1z"/>
			<path class="st1" d="M381.9,84.9c-2.1,0-3.2,1.2-3.2,3.7v7.1h-7.2v-7.3c0-4.2,2.2-7,6.5-8.6c1.2-0.5,2.9-0.7,5.1-0.7
				s4.3,0.9,6.5,2.8s3.3,4.2,3.3,6.9v23.9c0,4.2-2.3,7.1-6.9,8.6c-1.3,0.5-3.1,0.7-5.2,0.7s-4.2-0.8-6.3-2.4c-2-1.6-3.1-3.8-3.1-6.4
				v-6.9h7.2v6.4c0,2.5,1.1,3.7,3.2,3.7s3.2-1.1,3.2-3.3V88.2c0-1.4-0.4-2.3-1.3-2.7C383,85.1,382.4,84.9,381.9,84.9z"/>
			<path class="st1" d="M439.2,99.5c3.6-1.1,5.4-3.8,5.4-8.1V80.5h7.6v41h-43.4v-5.2c1.6-0.2,2.4-1.5,2.4-3.8v-10.3
				c0-2.5-1.1-3.7-3.3-3.7s-3.3,1.2-3.3,3.7v10.2c0,2.4,0.9,3.7,2.6,3.9v5.3c-4.6,0-7.7-1.7-9.4-4.9c-0.6-1.1-0.8-2.3-0.8-3.8v-11.3
				c0-4.3,2.3-7,7-8.3c1.3-0.4,3-0.6,5.1-0.6s4.3,0.8,6.6,2.4c2.3,1.6,3.4,3.8,3.4,6.5v10.3c0,1.8-0.6,3.2-1.8,4h14.5v-9.3
				c-5-0.1-8.5-2.1-10.4-6.1c-0.6-1.3-0.9-2.8-0.9-4.4v-8.3c0-3.9,1.9-6.6,5.8-8.1c1.1-0.5,2.7-0.7,4.6-0.7s3.8,0.8,5.7,2.5
				c1.9,1.7,2.8,3.7,2.8,6.2v11.8H439.2z M429.3,84.9c-1,0-1.4,0.5-1.4,1.6v9.1c0,3,1.3,4.5,3.9,4.5V88.5
				C431.7,86.1,430.9,84.9,429.3,84.9z M444.6,102.4c-1.5,1.5-3.3,2.7-5.4,3.7v9.7h5.4V102.4z"/>
			<path class="st1" d="M466.1,93c6.2,0,9.4,2.9,9.4,8.6V113c0,4.4-1.8,7.2-5.5,8.7c-1.2,0.5-2.8,0.7-4.9,0.7s-4.1-0.9-5.9-2.6
				c-1.8-1.8-2.8-4-2.8-6.7V88.9c0-4.1,2.2-6.9,6.6-8.3c1.3-0.4,2.6-0.6,4-0.6h7.8c2.9,0,5.4,0.7,7.6,2.1c1.6-2,4-3,7.1-3
				s5.7,0.8,7.8,2.5c1.4-1.7,3.8-2.5,7.2-2.5c3.3,0,6.1,0.9,8.2,2.7c2.1,1.8,3.2,4.1,3.2,6.9V113c0,3.8-2,6.5-5.9,8.1
				c-1.2,0.5-2.4,0.7-3.9,0.7h-2.2v-5.6c2.8,0,4.2-1.2,4.2-3.6v-24c0-2.4-1.1-3.6-3.4-3.6s-3.6,1.1-3.9,3.3v33.2h-7.3V88.3
				c-0.3-2.3-1.5-3.4-3.7-3.4s-3.4,1.2-3.7,3.4v33.2h-7.3V89.7c0-2.7-1.4-4-4.3-4H467c-1.9,0-2.8,1.2-2.8,3.7v3.9
				C464.6,93.1,465.3,93,466.1,93z M464.1,112.9c0,2.5,0.7,3.7,2,3.7s2-1.2,2-3.7v-10.3c0-2.5-0.7-3.8-2-3.8s-2,1.3-2,3.8V112.9z"/>
			<path class="st1" d="M572.3,81.9c3.3,1.1,5,3.5,5,7.1v23.9c0,3.9-1.9,6.8-5.8,8.5c-1.1,0.5-2.3,0.8-3.5,0.8h-1.8
				c-4,0-6.8-2-8.6-5.8c-0.5-1.1-0.8-2.3-0.8-3.5V90.7c0-2.3,0.9-3.9,2.6-4.9h-7.8c1.4,1,2.2,2.7,2.2,4.8v22.2
				c0,4.5-2.2,7.4-6.6,8.8c-1.3,0.4-3.1,0.6-5.4,0.6c-2.3,0-4.5-0.8-6.7-2.5s-3.3-4-3.3-6.9V90.6c0-2.4,0.9-4,2.6-4.8h-3.7
				c-2.1,0-3.2,1.2-3.2,3.7V112c0,2.5,1.1,3.8,3.3,3.8v5.6c-4.9,0-8.2-1.7-10.1-5c-0.6-1.1-0.9-2.5-1-4V88.8c0-4.2,2.4-7,7.1-8.3
				c1.3-0.4,2.6-0.6,3.9-0.6h5c3.5,0,5.9,0.9,7.3,2.6c1.2-1.7,4.1-2.6,8.8-2.6h14.3c1,0,1.5-1.1,1.5-3.3s-0.6-3.3-1.7-3.3
				s-1.7,0.9-1.7,2.8h-7.8c0-5.6,3.3-8.4,9.8-8.4c4.2,0,7,1.5,8.4,4.4c0.5,1,0.8,2.7,0.7,5.1C575.5,79.6,574.4,81.2,572.3,81.9z
				 M539.7,112.8c0,2.5,1.1,3.7,3.3,3.7s3.3-1.2,3.3-3.7V91.7c0-2.2-0.9-3.6-2.7-4.2c-0.2-0.1-0.4-0.1-0.4-0.1
				c-2.3,0-3.4,1.4-3.4,4.3L539.7,112.8L539.7,112.8z M564.7,112.9c0,2.5,0.8,3.7,2.5,3.7s2.5-1.2,2.5-3.7V89.6
				c0-2.6-0.8-3.9-2.5-3.9c-1.6,0.7-2.5,2.3-2.5,4.8V112.9z"/>
			<path class="st1" d="M612.8,121.1c0,1.6,1.1,2.5,3.2,2.5h33v6.1h-33c-4.7,0-7.8-1.6-9.3-4.9c-0.5-1.1-0.8-2.3-0.8-3.7
				c0-5.4,3.4-8.1,10.1-8.1h20.9c2,0,3.3-0.6,3.9-1.7c0.6-1.2,0.8-2,0.8-2.7v-19c0-2.5-1.3-3.8-3.9-3.8c-2.6,0-3.9,1.2-3.9,3.5V111
				H626V89.4c0-2.5-1.3-3.7-3.8-3.7h-5.1c-2.3,0-3.7,1-4,3.1v2.8c0.5-0.8,2-1.2,4.3-1.2c2.4,0,4.1,0.7,5.1,2.2s1.5,3.7,1.5,6.8v3.3
				c0,6-2.9,9-8.7,9c-4.6,0-7.7-1.7-9.2-5.2c-0.5-1.1-0.8-2.4-0.8-3.8V88.9c0-4.1,2.4-6.9,7-8.3c1.3-0.4,2.7-0.6,4.1-0.6h6.4
				c3.1,0,5.5,0.9,7.1,2.8c1.5-1.9,3.6-2.8,6.4-2.8c2.7,0,4.7,0.2,6.1,0.6c1.4,0.4,2.5,0.9,3.6,1.7c2.2,1.7,3.3,3.9,3.3,6.7v20.1
				c0,4.4-2.2,7.3-6.7,8.9c-1.3,0.5-2.7,0.7-4.1,0.7h-22.6C613.8,118.6,612.8,119.5,612.8,121.1z M613.2,102.3
				c0,2.5,0.7,3.8,2.2,3.8s2.2-1.3,2.2-3.8V100c0-2.6-0.7-3.9-2.2-3.8s-2.2,1.3-2.2,3.8V102.3z"/>
			<path class="st1" d="M678.4,76.8c0-5.8,3.1-8.7,9.4-8.7c6.3,0,9.4,2.7,9.4,8.2c0,2-0.5,3.5-1.4,4.4s-1.6,1.4-2.2,1.5
				c3.7,1.4,5.5,3.8,5.5,7V113c0,4-1.9,6.8-5.8,8.5c-1.1,0.5-2.3,0.7-3.5,0.7H688c-4,0-6.8-1.9-8.5-5.7c-0.5-1.1-0.8-2.3-0.8-3.5
				V90.7c0-2,0.9-3.6,2.7-4.7h-3.8c-1.6,0-2.4,1-2.4,3.1v32.3h-7.7V88.7c0-1.4-0.4-2.4-1.3-2.8c-0.8-0.4-1.5-0.6-1.9-0.6
				c-2.1,0-3.2,1.2-3.2,3.7v23.5c0,2.4,1.3,3.6,4,3.6v5.6c-5,0-8.6-1.6-10.7-4.8c-0.7-1.1-1.1-2.5-1.1-4V88.8c0-4.2,2.3-7.1,7-8.7
				c1.3-0.5,3.2-0.7,5.6-0.7c2.4,0,4.2,1.1,5.4,3.4c1.4-1.7,4.1-2.6,8-2.6h7.9c1.6,0,2.3-1.1,2.3-3.3c0-2.2-0.7-3.3-2-3.3
				s-1.9,1-1.7,3.1L678.4,76.8L678.4,76.8z M686.5,112.9c0,2.5,0.8,3.7,2.5,3.7s2.5-1.2,2.5-3.7V89.8c0-2.5-0.8-3.8-2.5-3.8
				c-1.7,0.8-2.5,2.4-2.5,4.6V112.9z"/>
			<path class="st1" d="M741,79.4c7.1,0,10.6,2.8,10.6,8.5v23.2c0,4-2.2,6.7-6.7,8.2c-1.2,0.4-2.9,0.6-4.9,0.6s-4.1-0.9-6.3-2.6
				s-3.3-3.9-3.3-6.6V88c0-2.3-0.9-3.5-2.7-3.5c-2,0-3.1,1.1-3.1,3.3v31.4h-6.9V87.7c0-2.2-1.2-3.3-3.6-3.3c-2.2,0-3.3,1.2-3.3,3.5
				v22.6c0,2.4,1,3.6,3.1,3.5v5.4c-6.9,0-10.3-2.8-10.3-8.5V88.1c0-4.1,2.2-6.9,6.6-8.5c1.2-0.5,2.9-0.7,5-0.7s3.9,1,5.4,3
				c1.4-2,3.2-3,5.6-3c2.4,0,4.1,0.2,5.3,0.7s2.2,1.1,3.2,1.9c2.1,1.8,3.1,4,3.1,6.5v22.5c0,2.6,1.1,3.9,3.3,3.9s3.3-1.3,3.3-3.9
				V88.4c0-2.4-1.1-3.6-3.3-3.5L741,79.4L741,79.4z M712.9,125.5c0-3.3,2.7-5,8.2-5s8.2,1.7,8.2,5v9.4c0,2.9-2.2,4.4-6.7,4.4v-3
				c1.1-0.1,1.6-0.7,1.6-1.8V127c0-2.3-0.9-3.4-2.8-3.4c-1.8,0-2.8,1.1-2.8,3.4v7.5c0,0.5,0.1,0.9,0.3,1.2c0.2,0.4,0.6,0.5,1.2,0.4
				v3.1c-4.9,0-7.3-1.5-7.3-4.4L712.9,125.5L712.9,125.5z M732.2,125.5c0-3.3,2.7-5,8.2-5s8.2,1.7,8.2,5v9.4c0,2.9-2.5,4.4-7.5,4.4
				v-3c1.1-0.1,1.6-0.7,1.6-1.8V127c0-2.3-0.9-3.4-2.8-3.4s-2.8,1.1-2.8,3.4v7.5c0,1,0.5,1.4,1.4,1.3v3.5c-4.3,0-6.5-1.5-6.5-4.4
				v-9.4H732.2z"/>
			<path class="st1" d="M752.8,67.6c-2,0-3,1.2-3,3.6v5.3h-7v-6.6c0-3.7,2.1-6.2,6.5-7.5c1.2-0.4,2.8-0.6,4.9-0.6
				c2,0,4.1,0.7,6.2,2.2c2.1,1.5,3.1,3.4,3.1,5.9v51.3h-7.7V70.8c0-1.3-0.4-2.1-1.2-2.6C753.8,67.8,753.2,67.6,752.8,67.6z"/>
			<path class="st1" d="M776,105.5c0,2,1,3,2.9,2.9v4.5c-4.6,0-7.6-0.8-9-2.4s-2.1-3-2.1-4.3V89.4c0-5,2.9-8.2,8.7-9.7
				c1.6-0.4,3.7-0.6,6.3-0.6s5.2,0.9,7.9,2.6s4.1,4.3,4.1,7.7v16.8c0,3.3-2.5,5.5-7.5,6.4c-1.2,0.2-2.4,0.3-3.3,0.3v-4.4
				c1.7-0.1,2.6-1,2.6-3V89.2c0-2.3-1.1-4-3.2-5c-0.7-0.3-1.5-0.5-2.6-0.5s-2.1,0.6-3.2,1.7c-1,1.1-1.6,2.4-1.6,3.9L776,105.5
				L776,105.5z M781.2,113.6c7.1,0,10.7,2.4,10.7,7.1v13.2c0,3.3-2.9,5-8.6,5v-3.3c1.4-0.1,2-0.8,2-2.2v-12.8c0-2.3-1.4-3.5-4.2-3.5
				s-4.2,1.2-4.2,3.5v12.8c0,1.5,0.8,2.2,2.3,2.2v3.3c-3.5,0-5.9-0.6-7.1-1.8c-1.2-1.2-1.8-2.3-1.8-3.2v-13.2
				C770.5,116,774.1,113.6,781.2,113.6z"/>
			<path class="st1" d="M813.4,129.5c4.7,0.4,7.1,2,7.1,5v4.7c0,2.6-1.7,4.4-5,5.3c-0.9,0.2-1.7,0.4-2.5,0.4c-4.8,0-7.2-1.5-7.2-4.5
				v-1.2l4.6,0.6c0,1.4,0.8,2.1,2.3,2.1s2.3-0.8,2.3-2.5v-5.3c0-0.7-0.5-1.3-1.5-1.7c0.2,0.4,0.3,1.6,0.3,3.5s-1.1,2.9-3.2,2.9
				s-3.5-0.4-4.1-1.2s-0.9-1.5-0.9-2.1v-1.6c-0.7,0.1-1.4,0.1-2,0.1c-7.1,0-10.6-2.2-10.6-6.7c0-2.8,1.1-4.7,3.4-5.8
				c0.7-0.3,1.5-0.5,2.4-0.5s1.3-0.4,1.3-1.2c0-0.1,0-0.3-0.1-0.5h5.6v1.5c0,1.7-0.6,2.5-1.9,2.5l-2.4-0.1c-1.2,0-1.9,0.8-1.9,2.3
				s1.3,2.3,3.9,2.3c3.2,0,4.7-1.5,4.7-4.6c0-2.7-0.9-5.3-2.8-7.8c-1.9-2.6-3.1-4.4-3.8-5.6c-1.6-2.8-2.4-5.8-2.4-8.9l0.1-18.8h7.8
				v20.1c0,3.1,0.8,5.9,2.5,8.3c1.7,2.5,2.9,4.2,3.5,5.3c1.4,2.5,2.1,4.9,2.1,7.4C815.1,125.7,814.5,127.8,813.4,129.5z
				 M810.3,136.9c0.6,0,0.9-0.3,0.9-0.9v-2.2c0-0.6-0.3-0.9-0.9-0.9c-0.6,0-0.9,0.3-0.9,0.9v2.2
				C809.4,136.6,809.7,136.9,810.3,136.9z"/>
			<path class="st1" d="M839.6,114.2c2.2,1.5,3.3,3.3,3.3,5.6v5.1c0,4.3-3,7.1-9,8.4c-1.6,0.3-3.4,0.5-5.7,0.5
				c-2.2,0-4.6-0.7-7.2-2.1c-3.1-1.7-4.7-4-4.7-6.9v-2.7h9v2.6c0,2.5,1.4,3.7,4.1,3.7c2.8,0,4.1-1.7,4.1-5.2V121
				c0-2.5-1.4-3.7-4.1-3.7h-11.1v-6.1h11.3c2.9,0,4.3-1.1,4.3-3.3v-1.8c0-2.5-2-3.8-5.9-4c-5.2-0.2-8.8-1.9-10.8-5.2
				c-0.6-0.9-0.9-2-0.9-3.2V88c0-4.3,3-7.1,9-8.5c1.5-0.3,3.4-0.5,5.6-0.5c2.2,0,4.8,0.8,7.6,2.4c2.9,1.6,4.3,3.8,4.3,6.6v5.1h-8.9
				v-5c0-2.5-1.4-3.8-4.1-3.8c-2.8,0-4.1,1.3-4.1,3.8v5.1c0,2.6,1.9,3.9,5.9,4c4.8,0.1,8.2,1.9,10.4,5.3c0.6,0.9,0.9,2,0.9,3.2v2.8
				C842.9,110.8,841.8,112.7,839.6,114.2z"/>
			<path class="st1" d="M855.4,66.3c0.2,0.8,0.3,1.3,0.3,1.4v2.8c0,3.6-1.5,6-4.4,7.4c-0.9,0.4-2,0.6-3.1,0.6h-5.3
				c-3.8,0-6.4-1.6-7.8-4.8c-0.5-1-0.7-2.1-0.7-3.3v-2.7c0-0.1,0.1-0.6,0.3-1.4h8.1c-0.2,0.8-0.3,1.3-0.3,1.4v3
				c0,1.6,1.1,2.4,3.2,2.4c2.1,0,3.2-0.8,3.2-2.3v-3.1c0-0.1-0.1-0.6-0.3-1.4H855.4z"/>
			<path class="st1" d="M880.1,93.8c0.8-0.8,2-1.1,3.8-1.1s3.5,0.4,5.3,1.3s2.6,3.4,2.6,7.6V113c0,4.4-1.8,7.2-5.4,8.7
				c-1.1,0.5-2.8,0.7-4.9,0.7c-2.1,0-4.2-0.9-6.2-2.6c-2-1.8-3-4-3-6.7V88.9c0-4.1,2.2-6.9,6.6-8.3c1.3-0.4,2.6-0.6,4-0.6h11.7
				c7.7,0,11.5,3,11.5,9v5.9c0,3.2-1.2,5.1-3.7,5.9c2.5,0.8,3.7,2.9,3.7,6.2v6c0,5.9-3.5,8.9-10.6,8.9H894v-5.7h1
				c2.3,0,3.4-1.4,3.4-4.3v-4.4c0-2.5-0.9-3.7-2.7-3.7h-1.4v-6.2c2.7,0,4.1-1.2,4.1-3.7v-4.2c0-2.6-1.2-3.9-3.7-3.9h-11
				c-1.5,0-2.5,0.4-2.9,1.3s-0.7,1.6-0.7,2.1L880.1,93.8L880.1,93.8z M882.6,116.6c1.2,0,1.9-1.4,1.9-4.1v-10.3
				c0-2.3-0.7-3.4-2.2-3.4s-2.2,1.1-2.2,3.4v10.3C880.1,115.2,880.9,116.6,882.6,116.6z M919.6,84.9c-2.1,0-3.2,1.2-3.2,3.7v7.1
				h-7.7v-6.9c0-4.3,2.3-7.3,6.9-9c1.3-0.5,3-0.7,5.1-0.7s4.3,1,6.5,2.9c2.3,1.9,3.4,4.2,3.4,6.8v23.9c0,4.2-2.4,7.1-7.1,8.6
				c-1.3,0.5-3,0.7-5.1,0.7s-4.2-0.9-6.4-2.6s-3.3-4-3.3-6.7v-6.4h7.7v6.4c0,2.5,1.1,3.7,3.2,3.7c2.1,0,3.2-1.2,3.2-3.7V88.6
				C922.8,86.2,921.7,84.9,919.6,84.9z"/>
			<path class="st1" d="M956.7,112.4c0,1.4-0.6,2.5-1.7,3.5h5.4v-27c0-4.3,2.4-7.3,7.3-9c1.4-0.5,3.3-0.8,5.7-0.8s4.7,0.9,7.1,2.8
				c2.3,1.9,3.5,4.2,3.5,6.9v32.6h-37.3v-5.3c1.6,0,2.4-1.2,2.4-3.7v-10.3c0-2.5-1.1-3.7-3.3-3.7s-3.3,1.2-3.3,3.7v10.2
				c0,2.5,0.8,3.8,2.4,3.8v5.4c-5,0-8.2-1.8-9.6-5.3c-0.4-1-0.6-2.2-0.6-3.3v-11.3c0-4.1,2.3-6.9,6.8-8.3c1.3-0.4,3.1-0.6,5.4-0.6
				c2.3,0,4.5,0.8,6.6,2.5s3.2,3.8,3.2,6.4L956.7,112.4L956.7,112.4z M976.2,88.5c0-2.5-1.3-3.7-4-3.7s-4,1.2-4,3.7v27.3h8V88.5z"/>
			<path class="st1" d="M996.4,66.3c0.2,0.8,0.3,1.3,0.3,1.4v2.8c0,3.6-1.5,6-4.4,7.4c-0.9,0.4-2,0.6-3.1,0.6h-5.3
				c-3.8,0-6.4-1.6-7.8-4.8c-0.5-1-0.7-2.1-0.7-3.3v-2.7c0-0.1,0.1-0.6,0.3-1.4h8.1c-0.2,0.8-0.3,1.3-0.3,1.4v3
				c0,1.6,1.1,2.4,3.2,2.4c2.1,0,3.2-0.8,3.2-2.3v-3.1c0-0.1-0.1-0.6-0.3-1.4H996.4z"/>
			<path class="st1" d="M1033.6,116.1c1.8-0.1,2.6-1.3,2.6-3.6V89.7c0-2.5-1.5-3.8-4.4-3.8h-6.6c-2.8,0-4.2,1.2-4.2,3.6v3.6
				c0.8-1.1,2.1-1.7,3.6-1.7c5.6,0,8.4,3,8.4,8.9V113c0,4.4-2,7.2-5.9,8.6c-1.2,0.5-2.9,0.7-5,0.7s-4.1-0.9-6-2.6s-2.8-4-2.8-6.7
				V89.1c0-4.1,2.1-6.9,6.5-8.3c1.2-0.4,2.6-0.6,4-0.6h8.9c5.3,0,8.8,1.7,10.5,5.2c0.5,1.1,0.8,2.3,0.8,3.7V113c0,3-0.7,5-2.1,6
				c-2.3,1.7-5.1,2.7-8.3,2.9V116.1z M1021,112.9c0,2.5,0.7,3.7,2.2,3.7c1.5,0,2.2-1.2,2.2-3.7v-12c0-2.5-0.7-3.7-2.2-3.7
				c-1.5,0-2.2,1.2-2.2,3.7V112.9z"/>
			<path class="st1" d="M1056.7,88.7V94c0,2.3,1.2,3.6,3.5,3.9c5.5,0,9.3,1.8,11.4,5.3c0.7,1.1,1,2.3,1,3.6v6c0,4.2-2.6,7.1-7.7,8.7
				c-1.5,0.5-3.5,0.7-6,0.7s-5-0.9-7.4-2.7c-2.4-1.8-3.6-4-3.6-6.7v-5.5h8.5v5.4c0,2.5,1.2,3.7,3.7,3.7s3.7-1.2,3.7-3.7v-5
				c0-2.3-1.2-3.5-3.6-3.9c-5.3,0-9.1-1.8-11.2-5.6c-0.6-1.1-1-2.4-1-3.7v-5.9c0-4.2,2.6-7.1,7.7-8.8c1.5-0.5,3.5-0.7,6-0.7
				s5,0.9,7.4,2.7c2.5,1.8,3.7,4.1,3.7,6.8V94h-8.5v-5.4c0-2.5-1.2-3.8-3.7-3.8C1057.9,84.9,1056.7,86.2,1056.7,88.7z"/>
			<path class="st1" d="M1087.3,80.3l5.7-0.1c4.5,0,7.7,1.7,9.7,5c0.6,1.1,0.9,2.3,0.9,3.6v2c0,3.5-2,5.8-5.9,7
				c-3.4,1-6.1,0.9-7.8-0.4c-2.8-2-4.2-4.1-4.2-6.1v-2.2c0-1.4,0.7-2.5,2-3.3c-2.3,0.3-3.4,1.6-3.4,4.1v21.7c0,1.5,0.4,2.6,1.3,3.2
				s1.6,1,2.1,1c-1.3-0.9-2-2-2-3.4v-2.2c0-3.1,1.8-5.3,5.5-6.4c5.3-1.7,9.2-0.4,11.6,3.8c0.5,0.9,0.8,2,0.8,3.1v1.6
				c0,4.1-2.2,6.9-6.7,8.4c-1.3,0.4-2.6,0.6-3.9,0.6h-5.7c-4.6,0-7.9-2.2-9.8-6.5c-0.6-1.3-0.9-2.7-0.9-4.3c0-1.6,0-3.2,0-4.7
				c0-1.6,0-3.9-0.1-7c0-3.1,0-6,0-8.5c0-2.6,1.1-4.9,3.2-6.9C1081.8,81.3,1084.4,80.3,1087.3,80.3z M1093,89.9c0,2,0.5,3,1.6,3
				s1.6-1,1.6-3v-1.3c0-2-0.5-3-1.6-3s-1.6,1-1.6,3V89.9z M1093,113c0,2,0.5,3,1.6,3s1.6-1,1.6-3v-1.4c0-2-0.5-3-1.6-3s-1.6,1-1.6,3
				V113z"/>
			<path class="st1" d="M1107.3,103.1c0-5.6,3.3-8.5,10-8.5h2.2v-6.4c0-4.3,2.5-7.1,7.5-8.4c1.4-0.3,3.2-0.5,5.3-0.5
				c2.2,0,4.5,0.8,6.9,2.3c2.4,1.6,3.6,3.8,3.6,6.6v6.4h1.4c6.7,0,10,2.8,10,8.5v8.1c0,5.7-3.6,8.6-10.9,8.6v-5.4
				c2.3,0.1,3.5-1.1,3.5-3.5v-7.2c0-2.1-0.7-3.3-2.2-3.5c-0.5-0.1-1.1-0.1-1.9,0v11.1c0,2.7-0.9,4.6-2.8,5.9c-3,2-6.4,3-10.1,3
				s-6.2-1-7.6-3.1c-1.5,2-3.4,3.1-5.6,3.1c-2.3,0-4.4-0.5-6.4-1.4s-3-3.4-3-7.5L1107.3,103.1L1107.3,103.1z M1116.7,114.6
				c1.9,0,2.8-1.4,2.8-4.2v-10.3h-2.3c-1.7,0-2.5,1.2-2.5,3.5v7.2C1114.7,113.4,1115.4,114.6,1116.7,114.6z M1135,122.1
				c1-0.8,2.6-1.2,4.7-1.2s4,0.4,5.6,1.1s2.4,1.8,2.4,3.3v10.4c0,2.8-2.6,4.2-7.8,4.2v-3.1c1.3,0.1,2-0.3,2-1.3v-10.1
				c0-0.9-0.7-1.3-2-1.3c-1.4,0-2,0.4-2,1.2v14.6h-5.3v-14.6c0-0.8-0.7-1.2-2-1.2s-2,0.4-2,1.3v10.1c0,0.9,0.7,1.4,2.1,1.3v3.1
				c-5.3,0-7.9-1.4-7.9-4.2v-10.4c0-2.9,2.5-4.3,7.4-4.3C1132.2,120.9,1133.9,121.3,1135,122.1z M1131.1,84.7c-2.8,0-4.2,1.3-4.2,4
				v5.8h8.5v-5.8C1135.3,86.1,1133.9,84.7,1131.1,84.7z M1131.1,114.7c2.8,0,4.2-1.5,4.2-4.6v-10h-8.5v9.9
				C1126.9,113.2,1128.3,114.7,1131.1,114.7z"/>
			<path class="st1" d="M1168.5,84.9c-2.1,0-3.2,1.2-3.2,3.7v7.1h-7.2v-7.3c0-4.2,2.2-7,6.5-8.6c1.2-0.5,2.9-0.7,5.1-0.7
				s4.3,0.9,6.5,2.8s3.3,4.2,3.3,6.9v23.9c0,4.2-2.3,7.1-6.9,8.6c-1.3,0.5-3.1,0.7-5.2,0.7s-4.2-0.8-6.3-2.4c-2-1.6-3.1-3.8-3.1-6.4
				v-6.9h7.2v6.4c0,2.5,1.1,3.7,3.2,3.7s3.2-1.1,3.2-3.3V88.2c0-1.4-0.4-2.3-1.3-2.7C1169.6,85.1,1169,84.9,1168.5,84.9z"/>
			<path class="st1" d="M1194.2,91.2c5.9,0,8.8,2.8,8.8,8.4v4c0,4-1.9,6.8-5.7,8.2c-1.2,0.5-2.8,0.7-5,0.7c-2.1,0-4.1-0.8-6-2.5
				s-2.8-3.8-2.8-6.4V88.9c0-4.1,2.3-6.9,6.9-8.3c1.3-0.4,2.7-0.6,4.1-0.6h10.4c4.7,0,8.1,1.6,10,4.8c0.6,1,0.9,2.3,0.9,3.6v5.1
				c0,3.3-1.1,5.3-3.4,6h-0.1c2.3,0.7,3.5,2.7,3.5,6v4.4c0,4.1-1.9,6.8-5.8,8.1c-1.2,0.4-2.5,0.6-3.9,0.6H1194
				c-2.1,0-3.1,0.8-3.1,2.4s1,2.4,3.1,2.4h21.3v6.1H1194c-4.6,0-7.7-1.6-9.2-4.8c-0.5-1.1-0.8-2.3-0.8-3.7c0-5.1,3.3-7.6,10-7.6
				h10.9c2.1,0,3.2-1.3,3.2-3.9v-3.4c0-1.9-0.6-2.8-1.9-2.8h-1.2v-6.6h1.4c1.2,0,1.8-1.2,1.8-3.7v-3.5c0-2.5-1.1-3.7-3.4-3.7h-10.2
				c-1.8,0-2.9,1.1-3.2,3.3V92C1192.5,91.4,1193.4,91.2,1194.2,91.2z M1191.3,103.1c0,2.5,0.7,3.7,2.2,3.7s2.2-1.2,2.2-3.7v-2.5
				c0-2.5-0.7-3.7-2.2-3.7s-2.2,1.2-2.2,3.7V103.1z"/>
			<path class="st1" d="M1259.9,106.1c2.6,1.4,3.9,3.3,3.9,5.6c0,2.3-0.2,4-0.7,5.2c-0.5,1.1-1.1,2.1-2,2.9c-0.8,0.8-1.9,1.4-3,1.9
				c-1.2,0.4-2.8,0.7-4.8,0.7s-3.9-0.8-5.7-2.5c-1.8-1.7-2.6-3.3-2.6-4.8c0-1.6,0.1-2.5,0.2-2.8s0.2-0.6,0.2-1
				c-4.9,7.4-10,11.1-15.3,11.1c-4.7,0-7.9-1.6-9.6-4.7c-0.6-1.1-0.9-2.5-0.9-4.3s0.7-3.4,2.2-4.8s3.3-2.1,5.3-2.1h23.9
				c1.8,0,3-1.2,3.8-3.6c0.2-0.6,0.3-1.2,0.3-1.7V88.7c0-2.5-1.3-3.8-3.8-3.8s-3.8,1.2-3.8,3.5v17.2h-6.5V89.3
				c0-1.5-0.5-2.5-1.5-3.1s-1.7-0.9-2.1-0.9h-6.3c-1.3,0-2.2,0.4-2.6,1.1c-0.5,0.8-0.7,1.4-0.7,1.8v1.4c0.6-0.9,1.9-1.4,3.9-1.4
				c4.5,0,6.8,2.1,6.8,6.4v4.5c0,2.6-1.2,4.6-3.7,6c-0.7,0.4-1.4,0.6-2.2,0.6h-5.5c-2.9,0-5-1.5-6.4-4.7c-0.4-0.9-0.6-1.8-0.6-2.8
				v-9.7c0-4.2,2.2-7,6.5-8.4c1.2-0.4,2.5-0.6,3.8-0.6h7.1c3.2,0,5.4,0.9,6.7,2.7c1.2-2.1,3.3-3.1,6.2-3.1c2.9,0,5.7,0.4,8.4,1.3
				c2.7,0.9,4,3.7,4,8.5v11.8C1262.9,102.6,1261.9,104.4,1259.9,106.1z M1230.7,111c-2,0-3,0.9-3,2.6c0,1.8,1,2.6,3,2.6
				c3.8,0,6.7-1.8,8.8-5.3h-8.8V111z M1229.8,101.3c1.3,0,1.9-1,1.9-3.1v-2.9c0-2.1-0.6-3.1-1.9-3.1s-1.9,1.1-1.9,3.4v2.3
				C1227.9,100.2,1228.5,101.3,1229.8,101.3z M1256.3,116.1c0.6-0.6,1-1.4,1-2.3s-0.3-1.7-1-2.3c-0.6-0.6-1.4-1-2.3-1
				s-1.7,0.3-2.3,1c-0.6,0.6-1,1.4-1,2.3s0.3,1.7,1,2.3c0.6,0.6,1.4,1,2.3,1C1254.9,117,1255.6,116.7,1256.3,116.1z"/>
			<path class="st1" d="M1264.3,67.6c-2,0-3,1.2-3,3.6v5.3h-7v-6.6c0-3.7,2.1-6.2,6.5-7.5c1.2-0.4,2.8-0.6,4.9-0.6
				c2,0,4.1,0.7,6.2,2.2c2.1,1.5,3.1,3.4,3.1,5.9v51.3h-7.7V70.8c0-1.3-0.4-2.1-1.2-2.6C1265.3,67.8,1264.7,67.6,1264.3,67.6z"/>
			<path class="st1" d="M1345.3,104.9c0-2.5-0.9-3.7-2.8-3.7h-1.5v11.7c0,4.2-2.4,7.1-7.1,8.6c-1.4,0.5-3.8,0.7-7.2,0.7
				s-5.8-1.1-7.3-3.2c-0.9,2.1-2.2,3.1-3.8,3.1c-1.6,0-3.3,0-5.1,0c-1.8,0-3.4-0.8-5-2.5c-1.5-1.7-2.3-3.9-2.3-6.7v-8.6
				c0-5.9,3.5-8.9,10.5-8.9h2.8v-6.7c0-4.5,2.6-7.4,7.7-8.8c1.5-0.4,3.4-0.6,5.9-0.6s4.9,0.9,7.4,2.6c2.4,1.7,3.6,4,3.6,6.8v6.7h1.5
				c7,0,10.6,3,10.6,8.9v8.6c0,6-3.5,8.9-10.6,8.9h-0.9v-5.7h0.9c1.9,0,2.8-1.2,2.8-3.7L1345.3,104.9L1345.3,104.9z M1310.5,112.4
				c0,2.7,0.8,4,2.5,4c0.9,0,1.7-0.4,2.4-1.2c0.7-0.8,1-1.9,1-3.3v-10.8h-2.8c-2,0-3.1,1.2-3.1,3.7V112.4z M1328.6,85
				c-3,0-4.4,1.4-4.4,4.2v6.2h8.9v-6.2C1333.1,86.4,1331.6,85,1328.6,85z M1328.6,116.6c3,0,4.4-1.6,4.4-4.9v-10.6h-8.9v10.5
				C1324.2,114.9,1325.7,116.6,1328.6,116.6z"/>
			<path class="st1" d="M1367.3,84.9c-2.1,0-3.2,1.2-3.2,3.7v7.1h-7.2v-7.3c0-4.2,2.2-7,6.5-8.6c1.2-0.5,2.9-0.7,5.1-0.7
				s4.3,0.9,6.5,2.8s3.3,4.2,3.3,6.9v23.9c0,4.2-2.3,7.1-6.9,8.6c-1.3,0.5-3.1,0.7-5.2,0.7s-4.2-0.8-6.3-2.4c-2-1.6-3.1-3.8-3.1-6.4
				v-6.9h7.2v6.4c0,2.5,1.1,3.7,3.2,3.7s3.2-1.1,3.2-3.3V88.2c0-1.4-0.4-2.3-1.3-2.7C1368.3,85.1,1367.7,84.9,1367.3,84.9z"/>
			<path class="st1" d="M1406.6,108.1H1390v7.8h22.5V80.5h7.8v41h-37.9V88.8c0-4.5,2.5-7.5,7.6-9.1c1.5-0.5,3.4-0.7,5.8-0.7
				s4.8,0.9,7.2,2.7c2.4,1.8,3.6,4.2,3.6,7.1V108.1z M1398.9,88.9c0-2.7-1.5-4.1-4.5-4.1s-4.5,1.4-4.5,4.1v13.6h8.9L1398.9,88.9
				L1398.9,88.9z"/>
			<path class="st1" d="M1421.5,67.6c-2,0-3,1.2-3,3.6v5.3h-7v-6.6c0-3.7,2.1-6.2,6.5-7.5c1.2-0.4,2.8-0.6,4.9-0.6
				c2,0,4.1,0.7,6.2,2.2c2.1,1.5,3.1,3.4,3.1,5.9v51.3h-7.7V70.8c0-1.3-0.4-2.1-1.2-2.6C1422.5,67.8,1421.9,67.6,1421.5,67.6z"/>
			<path class="st1" d="M1469.4,82.7c1.6-1.7,3.8-2.5,6.8-2.5h9.6c7,0,10.5,3,10.5,8.9v23.7c0,5.9-3.3,8.9-9.8,8.9v-5.6
				c1.4,0,2.1-1.3,2.1-3.8V89.7c0-2.5-1.3-3.7-3.9-3.7h-7.2c-2.7,0-4,1.2-4,3.5v6c7.7,0,11.5,3,11.5,8.9v9c0,5.9-3.2,8.9-9.6,8.9
				c-2.8,0-4.9-0.9-6.3-2.6c-1.7,1.8-4.2,2.6-7.7,2.6c-3.4,0-6.1-0.9-8-2.6c-2.1,2.9-5.7,3.6-10.7,2.1c-4.2-1.3-6.3-4.2-6.3-8.7
				v-8.6c0-4.4,2.4-7.2,7.2-8.4c1.4-0.3,2.7-0.5,4.1-0.5h1.4v-6.7c0-6.2,4-9.4,12.1-9.4C1464.9,79.4,1467.7,80.5,1469.4,82.7z
				 M1444,112.9c0,2.5,0.8,3.7,2.5,3.7s2.5-1.1,2.5-3.3v-12h-1.4c-2.4,0-3.6,1.2-3.6,3.7V112.9z M1465.7,89c0-2.5-1.5-3.8-4.4-3.8
				s-4.4,1.2-4.4,3.7v6.5h8.9L1465.7,89L1465.7,89z M1456.8,112.9c0,2.5,1.5,3.7,4.4,3.7s4.4-1.2,4.4-3.7v-11.7h-8.9L1456.8,112.9
				L1456.8,112.9z M1473.4,113.2c0,2.2,0.7,3.3,2.1,3.3s2.1-1.2,2.1-3.7v-7.9c0-2.5-0.9-3.7-2.8-3.7h-1.4L1473.4,113.2L1473.4,113.2
				z"/>
			<path class="st1" d="M1508.6,105.5c0,2,1,3,2.9,2.9v4.5c-4.6,0-7.6-0.8-9-2.4s-2.1-3-2.1-4.3V89.4c0-5,2.9-8.2,8.7-9.7
				c1.6-0.4,3.7-0.6,6.3-0.6c2.6,0,5.2,0.9,7.9,2.6c2.7,1.7,4.1,4.3,4.1,7.7v16.8c0,3.3-2.5,5.5-7.5,6.4c-1.2,0.2-2.4,0.3-3.3,0.3
				v-4.4c1.7-0.1,2.6-1,2.6-3V89.2c0-2.3-1.1-4-3.2-5c-0.7-0.3-1.5-0.5-2.6-0.5s-2.1,0.6-3.2,1.7c-1,1.1-1.6,2.4-1.6,3.9
				L1508.6,105.5L1508.6,105.5z M1513.8,113.6c7.1,0,10.7,2.4,10.7,7.1v13.2c0,3.3-2.9,5-8.6,5v-3.3c1.4-0.1,2-0.8,2-2.2v-12.8
				c0-2.3-1.4-3.5-4.2-3.5c-2.8,0-4.2,1.2-4.2,3.5v12.8c0,1.5,0.8,2.2,2.3,2.2v3.3c-3.5,0-5.9-0.6-7.1-1.8s-1.8-2.3-1.8-3.2v-13.2
				C1503.1,116,1506.7,113.6,1513.8,113.6z"/>
			<path class="st1" d="M1539.7,66.3c0.2,0.8,0.3,1.3,0.3,1.4v2.8c0,3.6-1.5,6-4.4,7.4c-0.9,0.4-2,0.6-3.1,0.6h-5.3
				c-3.8,0-6.4-1.6-7.8-4.8c-0.5-1-0.7-2.1-0.7-3.3v-2.7c0-0.1,0.1-0.6,0.3-1.4h8.1c-0.2,0.8-0.3,1.3-0.3,1.4v3
				c0,1.6,1.1,2.4,3.2,2.4s3.2-0.8,3.2-2.3v-3.1c0-0.1-0.1-0.6-0.3-1.4H1539.7z"/>
		</g>
		<g>
			<path class="st1" d="M366.3,179.2v6h-5.9c0.5,0.5,0.7,1.2,0.7,2.2v14.3c0,4.9-2.9,7.4-8.6,7.4H345v15.6c0,1,0.2,1.7,0.5,2
				s1,0.5,2,0.5h3.3c1,0,1.6-0.2,1.9-0.5s0.5-1,0.5-2V215h7.7v10.8c0,2.5-0.6,4.3-1.9,5.5s-3.3,1.8-6,1.8h-7.8c-2.8,0-4.8-0.6-6-1.8
				c-1.3-1.2-1.9-3-1.9-5.5v-31.5h7.7v8.9h5.6c1.1,0,1.8-0.2,2.2-0.5c0.4-0.3,0.6-1.1,0.6-2.2V188c0-1.1-0.2-1.9-0.6-2.2
				s-1.1-0.5-2.2-0.5h-18.8v-6h34.5V179.2z"/>
			<path class="st1" d="M383,179.2v6h-6.2v47.9h-7.7v-47.9H363v-6L383,179.2L383,179.2z"/>
			<path class="st1" d="M419.6,179.4v6h-6.2v26.4H396c-1,0-1.7,0.2-2,0.5s-0.5,1-0.5,2.1v10.2c0,1.1,0.2,1.8,0.5,2.1s1,0.5,2.1,0.5
				h7.1c1,0,1.7-0.2,2.1-0.5c0.3-0.3,0.5-1,0.5-2.1v-5h7.7v5.9c0,2.5-0.6,4.4-1.7,5.6c-1.1,1.2-3,1.9-5.6,2l6.7,12.1h-7.4l-5.3-10.7
				l-5.4,10.7h-7.4l6.8-12.1c-2.8,0-4.9-0.6-6.2-1.9c-1.3-1.2-2-3.2-2-5.8V213c0-2.6,1.1-4,3.4-4.1v-0.3c-2.2-0.2-3.4-1.5-3.4-4.1
				v-19.3h-6.2v-6h39.8V179.4z M393.5,196.2v7.1c0,1,0.2,1.7,0.5,2.1c0.3,0.3,1,0.5,2,0.5h8.3c-5.7-8.4-8.9-13.2-9.6-14.4
				s-1.4-2.5-2-3.9C393.3,190.9,393.5,193.7,393.5,196.2z M405.7,195.1v-9.6h-10.2c5,7.2,7.9,11.4,8.6,12.7c0.8,1.3,1.5,2.7,2.2,4.2
				C406,200.4,405.7,198,405.7,195.1z"/>
			<path class="st1" d="M436.3,179.2v6.2h-6.2v47.7h-7.7v-47.7h-6.2v-6.2h6.2v-8.1c0-1.1-0.2-1.9-0.5-2.2s-1.1-0.5-2.2-0.5h-4
				c-1.2,0-2,0.2-2.3,0.5s-0.5,1.1-0.5,2.3v4.4h-7.7v-5.9c0-4.9,2.5-7.3,7.6-7.3h9.8c5,0,7.6,2.4,7.6,7.3v9.6h6.1V179.2z"/>
			<path class="st1" d="M476.7,179.5v6h-6.2v47.9h-7.7v-7.7c-0.6,0.6-1.7,0.9-3.1,0.9h-13.8c-5.5,0-8.3-2.6-8.3-7.7v-18.2h7.7
				c1,0,1.6-0.2,2-0.5c0.3-0.3,0.5-1,0.5-1.9v-10.1c0-1.3-0.2-2.1-0.6-2.4c-0.4-0.3-1.5-0.5-3.2-0.5h-12.7v-6h45.4V179.5z
				 M462.8,217.7v-32.2h-8.1c0.5,0.6,0.8,1.5,0.8,2.7v11.3c0,5-2.6,7.5-7.7,7.5h-2.3v11.1c0,1.1,0.2,1.8,0.5,2.1s1,0.5,2.1,0.5H460
				c1.1,0,1.9-0.2,2.3-0.6C462.6,219.7,462.8,218.9,462.8,217.7z"/>
			<path class="st1" d="M522.2,179.2v6H516v47.9h-7.7v-9.8l-9.2,14.3h-8.4l9-13.6c-5.1,0-7.7-2.6-7.7-7.7v-31.1h-6.2v-6H522.2z
				 M508.2,215.2v-30h-8.5v30.1c0,1,0.2,1.7,0.5,2.1c0.3,0.3,1,0.5,2,0.5h3.3c1,0,1.7-0.2,2.2-0.6C508,217,508.2,216.2,508.2,215.2z
				"/>
			<path class="st1" d="M538.9,179.2v5.9h-6.2v48H525v-47.9h-6.2v-6h5.3c-2.4-1.7-4.7-3.7-7.1-5.9l-11.6-10.8h9.8l3.6,4.1
				c4.2,4.6,7.3,8.7,9.5,12.2h0.3c-0.9-1.7-1.9-3.8-2.9-6.3l-4.2-10.1h7.7l3.4,16.6h6.3V179.2z"/>
			<path class="st1" d="M579.9,184.8h-6.2v47.9H566v-7.6c-0.6,0.6-1.7,0.9-3.1,0.9H549c-5.2,0-7.7-2.4-7.7-7.1v-6.5
				c0-2.5,1.1-3.9,3.4-4v-0.3c-2.2-0.2-3.4-1.5-3.4-4.1v-5.8c0-4.8,2.6-7.1,7.7-7.1h2.2V185h-15.4v-6h44.1 M566,217.4v-32.5h-7.2
				v11.7h-7.2c-1,0-1.6,0.2-2,0.5c-0.3,0.3-0.5,1-0.5,2v3.4c0,1,0.2,1.7,0.5,2s1,0.5,2,0.5h5.1v5.9h-5.1c-1,0-1.6,0.2-2,0.5
				c-0.3,0.3-0.5,1-0.5,2v4.2c0,1,0.2,1.7,0.5,2s1,0.5,2,0.5h11.7c1,0,1.7-0.2,2.2-0.6C565.8,219.2,566,218.5,566,217.4z"/>
			<path class="st1" d="M598.3,178.8v6h-6.2v47.9h-7.7v-47.9h-6.2l0.1-5.8h5.1c-1.8-1.8-4.3-5-7.3-9l-5.7-7.8h9.3l11.6,16.6
				L598.3,178.8L598.3,178.8z"/>
			<path class="st1" d="M647.5,162c5,0,7.6,2.4,7.6,7.3v5.9h-7.7v-4.4c0-1.1-0.2-1.9-0.5-2.2s-1.1-0.5-2.2-0.5h-34.2
				c-1.1,0-1.9,0.2-2.2,0.5s-0.5,1.1-0.5,2.2v8.1h6.2v6h-6.2v47.9h-7.9v-47.9h-6.2v-6h6.2v-9.6c0-4.9,2.5-7.3,7.6-7.3L647.5,162
				L647.5,162z"/>
			<path class="st1" d="M662.1,178.9v6h-6.2v47.9h-7.7v-47.9h-8.5v33.5c0,2.6-0.7,4.6-2,5.8s-3.4,1.9-6.3,1.9h-7.7
				c-2.9,0-5-0.6-6.3-1.9c-1.3-1.2-2-3.2-2-5.8v-15.7c0-5,2.9-7.5,8.6-7.5h7.9v-10.3h-21.2v-6L662.1,178.9L662.1,178.9z
				 M625.6,220.1h3.7c1,0,1.7-0.2,2.1-0.5c0.3-0.3,0.5-1,0.5-2.1v-16.1h-6.1c-1.1,0-1.8,0.2-2.2,0.5c-0.3,0.3-0.5,1-0.5,2.2v13.4
				c0,1,0.2,1.7,0.5,2.1C623.9,219.9,624.6,220.1,625.6,220.1z"/>
			<path class="st1" d="M709.1,185.2h-21.4v7.2c0.6-0.6,1.7-0.9,3.1-0.9h5.4c5.2,0,7.7,2.6,7.7,7.7V219c0,2.5-0.6,4.3-1.9,5.5
				c-1.3,1.2-3.3,1.8-6,1.8h-4.9v-5.9h2.5c1,0,1.7-0.2,2.1-0.5c0.3-0.3,0.5-1,0.5-2v-17.8c0-1.1-0.2-1.8-0.5-2.1s-1-0.5-2.1-0.5
				h-3.2c-1,0-1.8,0.2-2.2,0.6c-0.4,0.4-0.6,1.1-0.6,2.2V233h-7.7v-7.7c-0.6,0.6-1.7,0.9-3.2,0.9h-5.3c-5.2,0-7.7-2.6-7.7-7.7v-19.8
				c0-2.5,0.6-4.4,1.9-5.6c1.3-1.2,3.3-1.8,6-1.8h4.8v5.9h-2.5c-1,0-1.6,0.2-2,0.5c-0.3,0.3-0.5,1-0.5,2v17.8c0,1,0.2,1.7,0.5,2.1
				c0.3,0.3,1,0.5,2,0.5h3.3c1,0,1.7-0.2,2.2-0.6c0.4-0.4,0.6-1.1,0.6-2.2v-32.4h-21.4v-6h50.5V185.2z"/>
			<path class="st1" d="M725.7,179.2v6h-6.2v47.9h-7.7v-47.9h-6.2v-6.3h6.2v-7.8c0-1.1-0.2-1.9-0.5-2.2s-1.1-0.5-2.2-0.5h-18.5
				c-1.2,0-2,0.2-2.3,0.5s-0.5,1.1-0.5,2.2v4.4H680v-5.9c0-4.9,2.5-7.3,7.6-7.3H712c5,0,7.6,2.4,7.6,7.3v9.6L725.7,179.2
				L725.7,179.2z"/>
			<path class="st1" d="M785.5,185.2h-6.2v47.9h-7.7v-23.9H748v15.6c0,1,0.2,1.7,0.5,2s1,0.5,2,0.5h3.3c1,0,1.6-0.2,1.9-0.5
				c0.3-0.3,0.5-1,0.5-2V215h7.7v10.8c0,2.5-0.6,4.3-1.9,5.5c-1.3,1.2-3.3,1.8-6,1.8h-7.8c-2.8,0-4.8-0.6-6-1.8
				c-1.3-1.2-1.9-3-1.9-5.5v-31.5h7.7v8.9h5.6c1.1,0,1.8-0.2,2.2-0.5s0.6-1.1,0.6-2.2V188c0-1.1-0.2-1.9-0.6-2.2
				c-0.4-0.3-1.1-0.5-2.2-0.5h-18.8v-6h50.7 M771.7,203.2v-17.9h-8.3c0.5,0.5,0.7,1.2,0.7,2.2v11.1c0,2.2-0.4,3.7-1.3,4.6
				L771.7,203.2L771.7,203.2z"/>
			<path class="st1" d="M771.7,162.4h7.2v8.2h-7.2V162.4z"/>
			<path class="st1" d="M858.3,185h-6.2v47.9h-7.7v-7.7c-0.6,0.6-1.7,0.9-3.1,0.9h-13.4c-5.5,0-8.3-2.6-8.3-7.7v-9.9h-24.3v15.9
				c0,1,0.2,1.7,0.5,2s1,0.5,2,0.5h3.3c1,0,1.6-0.2,1.9-0.5c0.3-0.3,0.5-1,0.5-2v-9.6h7.7v10.8c0,2.5-0.6,4.3-1.9,5.5
				c-1.3,1.2-3.3,1.8-6,1.8h-7.8c-2.8,0-4.8-0.6-6-1.8c-1.3-1.2-1.9-3-1.9-5.5v-31.5h7.7v8.5h5.6c1.1,0,1.8-0.2,2.2-0.5
				s0.6-1.1,0.6-2.2v-12c0-1.1-0.2-1.9-0.6-2.2c-0.4-0.3-1.1-0.5-2.2-0.5h-18.8v-5.9h34.6v5.9h-5.9c0.5,0.5,0.7,1.2,0.7,2.2v10.8
				c0,2.1-0.5,3.6-1.4,4.6h18.4c1,0,1.6-0.2,2-0.5c0.3-0.3,0.5-1,0.5-2v-13c0-1-0.2-1.7-0.5-2s-1-0.5-2-0.5H828c-1,0-1.7,0.2-2,0.5
				s-0.5,1-0.5,2v3.7h-5.2v-5c0-4.8,2.5-7.2,7.5-7.2h3.2c5.2,0,7.7,2.4,7.7,7.2v15.3c0,5-2.6,7.5-7.9,7.5h-3.4v9
				c0,1.1,0.2,1.8,0.5,2.1s1,0.5,2.1,0.5h11.5c1.1,0,1.9-0.2,2.3-0.6c0.4-0.4,0.6-1.2,0.6-2.3v-38.2h13.9"/>
			<path class="st1" d="M874.9,179.3v5.7h-6.2v47.9H861V185h-6.1v-5.7L874.9,179.3L874.9,179.3z"/>
			<path class="st1" d="M920.5,185.1h-6.2V233h-7.7v-35.5h-7.1v21.1c0,2.6-0.7,4.6-2,5.8s-3.5,1.9-6.3,1.9h-6.4
				c-2.9,0-5-0.6-6.3-1.9c-1.3-1.2-2-3.2-2-5.8v-19.8c0-2.5,0.6-4.4,1.9-5.6c1.3-1.2,3.3-1.8,6-1.8h22.1V185h-34.7v-5.7h48.7V185.1z
				 M891.7,217.7v-20.1h-4.9c-1,0-1.6,0.2-2,0.5c-0.3,0.3-0.5,1-0.5,2v17.6c0,1.1,0.2,1.8,0.5,2.1s1,0.5,2.1,0.5h2.3
				c1,0,1.6-0.2,2-0.5C891.5,219.4,891.7,218.7,891.7,217.7z"/>
			<path class="st1" d="M979.4,185.2H958v7.2c0.6-0.6,1.7-0.9,3.1-0.9h5.4c5.2,0,7.7,2.6,7.7,7.7V219c0,2.5-0.6,4.3-1.9,5.5
				c-1.3,1.2-3.3,1.8-6,1.8h-4.9v-5.9h2.5c1,0,1.7-0.2,2.1-0.5c0.3-0.3,0.5-1,0.5-2v-17.8c0-1.1-0.2-1.8-0.5-2.1s-1-0.5-2.1-0.5
				h-3.2c-1,0-1.8,0.2-2.2,0.6c-0.4,0.4-0.6,1.1-0.6,2.2V233h-7.7v-7.7c-0.6,0.6-1.7,0.9-3.2,0.9h-5.3c-5.2,0-7.7-2.6-7.7-7.7v-19.8
				c0-2.5,0.6-4.4,1.9-5.6c1.3-1.2,3.3-1.8,6-1.8h4.8v5.9h-2.5c-1,0-1.6,0.2-2,0.5c-0.3,0.3-0.5,1-0.5,2v17.8c0,1,0.2,1.7,0.5,2.1
				c0.3,0.3,1,0.5,2,0.5h3.3c1,0,1.7-0.2,2.2-0.6c0.4-0.4,0.6-1.1,0.6-2.2v-32.4h-21.4v-5.7h50.6L979.4,185.2L979.4,185.2z"/>
			<path class="st1" d="M996.6,179.2v6h-6.2v47.9h-7.7v-47.9h-6.2v-6L996.6,179.2L996.6,179.2z"/>
			<path class="st1" d="M1055.8,179.2v6h-5.8v47.9h-7.7v-35.5h-5.2c-1,0-1.7,0.2-2,0.5c-0.3,0.3-0.5,1-0.5,2.1v17h-7.7v-17
				c0-1-0.2-1.7-0.5-2.1c-0.3-0.3-1-0.5-2-0.5h-2.8c-1,0-1.7,0.2-2,0.5s-0.5,1-0.5,2.1v24.2c0,1,0.2,1.6,0.5,1.9
				c0.3,0.3,1,0.5,2,0.5h5.1v6.3h-7.5c-2.7,0-4.7-0.6-5.9-1.8c-1.3-1.2-1.9-3-1.9-5.5v-26.5c0-5.1,2.6-7.7,7.7-7.7h7.4
				c2.6,0,4,1.1,4.2,3.4h0.3c0.2-2.2,1.5-3.4,4.1-3.4h7.1v-6.4h-36.7v-6L1055.8,179.2L1055.8,179.2z"/>
			<path class="st1" d="M998.1,179.2l-0.1-9.5c0-4.9,2.6-7.3,7.6-7.3h9.8c5.1,0,7.6,2.4,7.6,7.3v5.9h-7.7v-4.4c0-1.2-0.2-2-0.5-2.3
				s-1.1-0.5-2.3-0.5h-4c-1.1,0-1.9,0.2-2.2,0.5s-0.5,1.1-0.5,2.2v8.1h6.2v6h-6.2v47.9h-7.7v-47.9h-6.2v-6L998.1,179.2z"/>
			<path class="st1" d="M1101.4,185.5H1080v7.2c0.6-0.6,1.7-0.9,3.1-0.9h5.4c5.2,0,7.7,2.6,7.7,7.7v19.8c0,2.5-0.6,4.3-1.9,5.5
				s-3.3,1.8-6,1.8h-4.9v-5.9h2.5c1,0,1.7-0.2,2.1-0.5c0.3-0.3,0.5-1,0.5-2v-17.8c0-1.1-0.2-1.8-0.5-2.1s-1-0.5-2.1-0.5h-3.2
				c-1,0-1.8,0.2-2.2,0.6c-0.4,0.4-0.6,1.1-0.6,2.2v32.7h-7.7v-7.7c-0.6,0.6-1.7,0.9-3.2,0.9h-5.3c-5.2,0-7.7-2.6-7.7-7.7V199
				c0-2.5,0.6-4.4,1.9-5.6c1.3-1.2,3.3-1.8,6-1.8h4.8v5.9h-2.5c-1,0-1.6,0.2-2,0.5c-0.3,0.3-0.5,1-0.5,2v17.8c0,1,0.2,1.7,0.5,2.1
				c0.3,0.3,1,0.5,2,0.5h3.3c1,0,1.7-0.2,2.2-0.6c0.4-0.4,0.6-1.1,0.6-2.2v-32.4h-21.4v-6h50.6v6.3H1101.4z"/>
			<path class="st1" d="M1127.9,198h-12.5c-1,0-1.7,0.2-2.1,0.5c-0.3,0.3-0.5,1-0.5,2.1v24.3c0,1.1,0.2,1.8,0.5,2.1s1,0.5,2.1,0.5
				h2.6c1,0,1.7-0.2,2.1-0.5c0.3-0.3,0.5-1,0.5-2.1V216h7.7v9.8c0,2.6-0.7,4.6-2,5.8s-3.4,1.9-6.3,1.9h-6.7c-2.9,0-5-0.6-6.3-1.9
				c-1.3-1.2-2-3.2-2-5.8v-26.5c0-2.5,0.6-4.4,1.9-5.6c1.3-1.2,3.3-1.8,6-1.8h7.1v-6.4h-21.3v-6.3h34.9v6.3h-5.9V198H1127.9z"/>
		</g>
	</g>
</g>
</svg>
